<?xml version="1.0" encoding="UTF-8"?>
<svg id="Calque_1" data-name="Calque 1" xmlns="http://www.w3.org/2000/svg" viewBox="0 0 150 150">
  <defs>
    <style>
      .cls-1 {
        fill: #5a7d80;
      }

      .cls-2 {
        fill: #eb8b8b;
      }

      .cls-3 {
        fill: #01545e;
      }

      .cls-4 {
        fill: #c7c7c6;
        opacity: .5;
      }

      .cls-5 {
        fill: #fed164;
      }

      .cls-6 {
        fill: #a0b0b3;
      }

      .cls-7 {
        fill: #fff;
      }

      .cls-8 {
        fill: #00535d;
      }

      .cls-9 {
        fill: #78ba4c;
      }

      .cls-10 {
        fill: #37a491;
      }

      .cls-11 {
        fill: #02555e;
      }
    </style>
  </defs>
  <g>
    <path class="cls-9" d="M84.26,78.52c-2.29.01-4.59.02-6.88.04,2.23-3.13,2.66-7.66,1.84-11.35-.31-1.37-.98-3.1-1.84-4.21,1.12-.01,2.24,0,3.36-.02.16,0,.34-.1.4-.1.02,0,.14.09.3.09.77,0,1.89-.12,2.6-.02.78.12,1.68,1.53,2.01,2.2,1.95,3.94,1.47,10.19-1.77,13.35Z"/>
    <path class="cls-5" d="M90.69,62.93c.88,0,2.27-.13,3.08-.01,2,.3,3.02,5,3.13,6.64.2,2.99-.5,7.07-2.98,9-.03,0-.06,0-.09,0-.09-.15-.34-.09-.49-.09-1.77,0-3.55.02-5.32.03,2.06-3.29,2.55-7.48,1.75-11.26-.28-1.34-.92-3.2-1.75-4.3l2.68-.02Z"/>
    <path class="cls-3" d="M88.01,62.94c.83,1.1,1.47,2.96,1.75,4.3.8,3.77.31,7.97-1.75,11.26l-3.75.02c3.24-3.16,3.72-9.41,1.77-13.35-.33-.66-1.22-2.08-2.01-2.2-.71-.11-1.83.02-2.6.02-.16,0-.29-.09-.3-.09,1.7-2.62,5.08-2.33,6.88.05Z"/>
    <path class="cls-11" d="M97.58,78.44c-1.19.02-2.44.1-3.66.11,2.49-1.93,3.18-6.01,2.98-9-.11-1.64-1.13-6.34-3.13-6.64-.8-.12-2.2,0-3.08.01,1.71-2.64,4.77-2.56,6.7-.17,2.1,2.6,2.54,6.94,2.11,10.16-.27,1.98-.91,3.81-1.92,5.52Z"/>
    <path class="cls-8" d="M57.39,63.13c.86,1.11,1.54,2.84,1.84,4.21.83,3.69.39,8.22-1.84,11.35-2.2.02-4.42-.02-6.62.04-.03,0-.06,0-.09,0-2.51-3.85-2.97-9.81-1.09-14,1.58-3.49,5.11-5.04,7.78-1.6Z"/>
    <path class="cls-2" d="M64.28,78.65c-2.29.01-4.59.02-6.88.04,2.23-3.13,2.66-7.66,1.84-11.35-.31-1.37-.98-3.1-1.84-4.21,1.12-.01,2.24,0,3.36-.02.16,0,.34-.1.4-.1.02,0,.14.09.3.09.77,0,1.89-.12,2.6-.02.78.12,1.68,1.53,2.01,2.2,1.95,3.94,1.47,10.19-1.77,13.35Z"/>
    <path class="cls-10" d="M70.71,63.05c.88,0,2.27-.13,3.08-.01,2,.3,3.02,5,3.13,6.64.2,2.99-.5,7.07-2.98,9-.03,0-.06,0-.09,0-.09-.15-.34-.09-.49-.09-1.77,0-3.55.02-5.32.03,2.06-3.29,2.55-7.48,1.75-11.26-.28-1.34-.92-3.2-1.75-4.3l2.68-.02Z"/>
    <path class="cls-3" d="M68.03,63.07c.83,1.1,1.47,2.96,1.75,4.3.8,3.77.31,7.97-1.75,11.26l-3.75.02c3.24-3.16,3.72-9.41,1.77-13.35-.33-.66-1.22-2.08-2.01-2.2-.71-.11-1.83.02-2.6.02-.16,0-.29-.09-.3-.09,1.7-2.62,5.08-2.33,6.88.05Z"/>
    <path class="cls-11" d="M77.6,78.57c-1.19.02-2.44.1-3.66.11,2.49-1.93,3.18-6.01,2.98-9-.11-1.64-1.13-6.34-3.13-6.64-.8-.12-2.2,0-3.08.01,1.71-2.64,4.77-2.56,6.7-.17,2.1,2.6,2.54,6.94,2.11,10.16-.27,1.98-.91,3.81-1.92,5.52Z"/>
    <g>
      <path class="cls-1" d="M70.82,78.57l.44,71.14c-.6.04-2.41.09-4.79.14h-.01c-3.2.05-7.43.11-11.08.13h-1.24c-3.18.03-5.74.02-6.49,0-3.66-.09-6.22-.96-8.62-3.81-2.53-2.99-2.61-6.28-2.47-10.05l-.16-26.71-.14-20.95c1.12-6.63,5.51-9.55,11.97-9.75l18.03-.11s.03-.01.04,0t.02,0l4.51-.03Z"/>
      <path class="cls-1" d="M81.02,78.63c-.13-.21-.48-.12-.7-.12-2.51-.01-5.03.03-7.53.05l-5.32.03c-.92,0-1.84.01-2.76.02,5.47.09,10.99.32,16.31.03Z"/>
    </g>
    <rect class="cls-6" x="62" y="78.44" width="50.46" height="71.34" rx="4.97" ry="4.97" transform="translate(-.7 .54) rotate(-.35)"/>
    <rect class="cls-8" x="61.34" y="92.4" width="53.64" height="42.26" rx="2.4" ry="2.4" transform="translate(201.15 24.68) rotate(89.65)"/>
    <path class="cls-7" d="M107.17,92.48l-.07-1.6c-.04-.97-.83-1.72-1.8-1.72l-19.45.12c-.11,0-.21.01-.32.03,10.02.36,18.12,1.56,21.64,3.17Z"/>
    <path class="cls-4" d="M57.13,58.25h33.29c5.47,0,9.91,4.44,9.91,9.91v10.35h-53.11v-10.35c0-5.47,4.44-9.91,9.91-9.91Z" transform="translate(-.42 .46) rotate(-.35)"/>
    <rect class="cls-8" x="47.26" y="72.03" width="17.43" height="6.59" transform="translate(-.46 .35) rotate(-.35)"/>
    <rect class="cls-1" x="64.69" y="71.87" width="35.68" height="6.59" transform="translate(-.46 .51) rotate(-.35)"/>
    <path class="cls-8" d="M111.2,83.3l-16.04.1c-.51,0-.95-.36-1.01-.84l-1.14-8.06c-.08-.58.39-1.1,1-1.1l16.04-.1c.51,0,.95.36,1.01.84l1.14,8.06c.08.58-.39,1.1-1,1.1Z"/>
    <path class="cls-1" d="M95.9,82.75c-.16,0-.31-.12-.33-.28l-1.09-8.06c-.02-.13.04-.22.08-.26.04-.04.12-.11.25-.11l15.34-.09c.16,0,.31.12.33.28l1.09,8.06c.02.13-.04.22-.08.26-.04.04-.12.11-.25.11l-15.34.09Z"/>
  </g>
  <path class="cls-7" d="M98.9,68.14s-1.47-8.56-8.62-8.52l-33.9.21c4.73-.03,6,3.8,6.03,8.53,0,0,.45-4.35-.17-6.47-.15-.52.25-1.04.79-1.04l25.2-.16c4.69-.03,8.95,2.84,10.59,7.23.03.07.05.14.08.21Z"/>
</svg>