<?xml version="1.0" encoding="UTF-8"?>
<svg id="Calque_1" data-name="Calque 1" xmlns="http://www.w3.org/2000/svg" viewBox="0 0 150 150">
  <defs>
    <style>
      .cls-1 {
        fill: #5a7d80;
      }

      .cls-2 {
        fill: #a0b0b3;
      }

      .cls-3 {
        fill: #75a6c2;
        opacity: .5;
      }

      .cls-4 {
        fill: #2e5159;
      }

      .cls-5 {
        fill: #efda1c;
      }

      .cls-6 {
        fill: #b5d27a;
      }

      .cls-7 {
        fill: #e3e7e8;
      }

      .cls-8 {
        fill: #f6b2b0;
      }
    </style>
  </defs>
  <path class="cls-1" d="M54.09,150h45.11c3.6,0,6.53-2.92,6.53-6.53v-15.46c0-3.6-2.92-10.35-6.53-10.35h-52.58s.94,25.81.94,25.81c0,3.6,2.92,6.53,6.53,6.53Z"/>
  <path class="cls-2" d="M85.74,150h35.43c3.44,0,6.23-2.79,6.23-6.23l.94-26.11h-44.78s0,30.16,0,30.16c0,1.2.97,2.18,2.18,2.18Z"/>
  <path class="cls-4" d="M118.42,122.32h-8.96c-1.84,0-3.34,1.49-3.34,3.34v16.37c0,1.84,1.49,3.34,3.34,3.34h8.96c1.84,0,3.34-1.49,3.34-3.34v-16.37c0-1.84-1.49-3.34-3.34-3.34"/>
  <path class="cls-6" d="M117.92,130.67h0c.79,0,1.44-.65,1.44-1.44s-.64-1.44-1.44-1.44-1.44.64-1.44,1.44.64,1.44,1.44,1.44"/>
  <path class="cls-8" d="M111.09,130.67h0c.79,0,1.44-.65,1.44-1.44s-.64-1.44-1.44-1.44-1.44.64-1.44,1.44.64,1.44,1.44,1.44"/>
  <path class="cls-5" d="M128.34,117.5s0,0,0,0c0,0,0,0,0,0Z"/>
  <g>
    <path class="cls-3" d="M51.43,16.7c.14-4.9,3.55-8.78,7.69-8.78h4.28s30.28,0,30.28,0h18.47s.13,0,.13,0h4.13c4.12,0,7.51,3.88,7.65,8.78l4.07,100.63c0,.11,0,.23,0,.34h-4.26s-40.3,0-40.3,0h-32.65s-4.28,0-4.28,0c0-.11,0-.23,0-.34l4.81-100.63Z"/>
    <path class="cls-2" d="M50.91,117.32l4.81-100.63c.14-4.9,3.55-8.78,7.69-8.78h30.28c-4.15,0-7.55,3.88-7.69,8.78l-2.43,100.63c0,.11,0,.23,0,.34h-32.65c0-.11,0-.23,0-.34Z"/>
    <path class="cls-4" d="M46.62,117.32l4.81-100.63c.14-4.9,3.55-8.78,7.69-8.78h4.28c-4.15,0-7.55,3.88-7.69,8.78l-4.81,100.63c0,.11,0,.23,0,.34h-4.28c0-.11,0-.23,0-.34Z"/>
    <path class="cls-7" d="M83.56,117.32l2.43-100.63c.14-4.9,3.55-8.78,7.69-8.78h18.47s.13,0,.13,0h4.13c4.12,0,7.51,3.88,7.65,8.78l4.07,100.63c0,.11,0,.23,0,.34h-4.26,0s-40.3,0-40.3,0c0-.11,0-.23,0-.34Z"/>
  </g>
</svg>