<?xml version="1.0" encoding="UTF-8"?>
<svg id="Calque_2" data-name="Calque 2" xmlns="http://www.w3.org/2000/svg" viewBox="0 0 1891.91 248">
  <defs>
    <style>
      .cls-1 {
        fill-rule: evenodd;
      }

      .cls-1, .cls-2 {
        fill: #fff;
      }
    </style>
  </defs>
  <g id="Calque_1-2" data-name="Calque 1">
    <g>
      <path class="cls-2" d="M1236.05,98.09v-24.65c0-14.39-6.41-26.38-19.22-35.91-12.82-9.59-27.56-14.39-44.22-14.39h-134.07c-18.75,0-33.55,4.69-44.38,14.02-10.84,9.33-16.25,21.37-16.25,36.12v24.6h59.07c0-7.09,2.96-12.98,8.9-17.67,5.94-4.69,13.91-7.03,23.91-7.03h81.88c6.87,0,12.34,1.56,16.4,4.69,4.07,3.13,6.09,8.55,6.09,16.26,0,7.3-2.18,12.72-6.56,16.26-3.54,2.92-8.54,4.38-15,4.38h-57.82v43.47l58.44-.63h3.75c5,0,9.11,1.62,12.35,4.8,3.23,3.23,4.84,8.03,4.84,14.43,0,7.45-2.08,12.78-6.25,16.01-4.17,3.17-9.58,4.8-16.25,4.8h-80.64c-9.79,0-17.91-2.4-24.38-7.2-6.45-4.79-9.68-10.73-9.68-17.83h-59.07v25.03c0,14.38,5.41,26.37,16.25,35.96,10.84,9.59,25.63,14.39,44.38,14.39h134.07c16.67,0,31.41-4.8,44.22-14.39,12.81-9.54,19.22-21.53,19.22-35.92v-24.97c0-8.33-.94-15.01-2.81-19.96-2.5-6.67-6.98-12.3-13.44-16.88,6.04-2.5,10.42-7.61,13.13-15.33,2.09-5.99,3.13-13.5,3.13-22.46h0ZM1484.86,98.14v74.53c0,6.89-3.49,12.88-10.48,17.93-6.98,5.12-15.57,7.66-25.78,7.66h-132.2v-125.4h132.2c9.37,0,17.76,2.6,25.16,7.82,7.4,5.16,11.1,11,11.1,17.46h0ZM1547.99,98.71v-24.97c0-14.18-6.04-26.17-18.12-35.91-12.09-9.8-27.2-14.7-45.32-14.7h-230.64v224.87h230.95c16.67,0,31.35-4.75,44.07-14.23,12.71-9.43,19.06-21.27,19.06-35.45v-99.61h0Z"/>
      <polygon class="cls-1" points="112.2 98.84 135.1 143.92 107.6 143.92 92.03 176.4 151.59 176.4 176.26 224.98 224.61 224.98 112.2 0 0 224.36 48.14 225.19 112.2 98.84 112.2 98.84"/>
      <polygon class="cls-1" points="208.18 91.67 274.02 91.67 274.02 223.44 317.91 223.44 317.91 91.67 383.75 91.67 383.75 47.75 208.18 47.75 208.18 91.67 208.18 91.67"/>
      <path class="cls-1" d="M418.31,73.49c-17.15,17.16-25.72,37.86-25.72,62.11s8.51,45.07,25.55,62.11c17.15,17.15,37.89,25.74,62.24,25.74s44.86-8.53,61.89-25.57c17.26-17.16,25.9-37.92,25.9-62.28s-8.57-44.89-25.72-61.94c-17.14-17.27-37.83-25.91-62.06-25.91s-45.03,8.58-62.06,25.74h0ZM436.48,135.59c0-12.01,4.3-22.32,12.87-30.9,8.55-8.69,18.9-13.03,31.02-13.03s22.3,4.33,30.87,13.03c8.69,8.58,13.02,18.89,13.02,30.9s-4.33,22.49-13.02,31.04c-8.57,8.57-18.88,12.88-30.87,12.88s-22.47-4.3-31.02-12.88c-8.57-8.55-12.87-18.92-12.87-31.04h0Z"/>
      <polygon class="cls-1" points="589.93 47.75 589.93 223.44 633.82 223.44 633.82 113.63 677.7 135.59 721.59 113.63 721.59 223.44 765.49 223.44 765.49 47.75 721.59 47.75 721.59 69.71 677.7 91.67 633.82 69.71 633.82 47.75 589.93 47.75 589.93 47.75"/>
      <path class="cls-1" d="M936.39,179.52h-145.43v43.91h145.43v-43.91h0ZM936.41,47.69h-145.35v43.92h145.35v-43.92h0ZM936.21,113.79h-145.24v43.92h145.24v-43.92h0Z"/>
      <path class="cls-2" d="M1575.65,207.19c2.91,0,5.38,1.01,7.44,3.06,2.04,2.03,3.07,4.51,3.07,7.43s-1.03,5.41-3.07,7.46c-2.06,2.06-4.53,3.1-7.44,3.1s-5.38-1.04-7.45-3.1c-2.03-2.06-3.07-4.54-3.07-7.46s1.04-5.39,3.07-7.43c2.06-2.05,4.54-3.06,7.45-3.06h0ZM1675.59,168.28l-15.22,8.4c-2.87-3-5.68-5.06-8.48-6.23-2.79-1.18-6.07-1.74-9.83-1.74-6.85,0-12.39,2.03-16.6,6.09-4.24,4.08-6.34,9.29-6.34,15.65s2.04,11.23,6.09,15.15c4.07,3.92,9.41,5.86,16.02,5.86,8.18,0,14.54-2.79,19.13-8.38l14.4,9.9c-7.83,10.17-18.87,15.26-33.13,15.26-12.85,0-22.9-3.81-30.16-11.39-7.26-7.58-10.9-16.45-10.9-26.63,0-7.06,1.76-13.54,5.29-19.48,3.55-5.93,8.47-10.6,14.81-14,6.32-3.38,13.4-5.09,21.23-5.09,7.25,0,13.76,1.44,19.53,4.33,5.77,2.89,10.49,6.99,14.15,12.31h0ZM1726.43,151.64c6.89,0,13.37,1.72,19.44,5.16,6.09,3.44,10.8,8.09,14.22,13.98,3.41,5.9,5.1,12.25,5.1,19.09s-1.72,13.29-5.13,19.27c-3.44,5.98-8.11,10.65-14.01,14.02-5.94,3.37-12.44,5.06-19.56,5.06-10.49,0-19.44-3.71-26.84-11.14-7.42-7.45-11.13-16.48-11.13-27.09,0-11.39,4.19-20.87,12.57-28.46,7.35-6.6,15.78-9.9,25.33-9.9h0ZM1726.7,168.83c-5.7,0-10.44,1.98-14.22,5.92-3.77,3.96-5.67,9-5.67,15.17s1.88,11.47,5.61,15.38c3.73,3.92,8.47,5.89,14.22,5.89s10.49-1.99,14.31-5.96c3.8-3.96,5.7-9.08,5.7-15.31s-1.88-11.32-5.61-15.23c-3.73-3.9-8.52-5.85-14.34-5.85h0ZM1779.92,153.44h18.27v8.51c3.14-3.45,6.62-6.05,10.46-7.74,3.82-1.72,8.02-2.57,12.55-2.57s8.7,1.13,12.37,3.37c3.69,2.24,6.64,5.55,8.88,9.85,2.91-4.3,6.48-7.61,10.72-9.85,4.24-2.24,8.89-3.37,13.9-3.37s9.78,1.22,13.72,3.62c3.96,2.41,6.78,5.58,8.52,9.45,1.72,3.9,2.59,10.22,2.59,18.97v42.77h-18.27v-36.9c0-8.24-1.03-13.84-3.12-16.74-2.09-2.91-5.22-4.38-9.37-4.38-3.18,0-6.02.89-8.52,2.68-2.52,1.77-4.39,4.24-5.61,7.39-1.21,3.14-1.83,8.17-1.83,15.14v32.82h-18.27v-35.22c0-6.51-.49-11.23-1.47-14.14-.96-2.93-2.43-5.09-4.35-6.53-1.95-1.42-4.3-2.13-7.05-2.13-3.07,0-5.86.89-8.36,2.7-2.52,1.81-4.37,4.33-5.63,7.58-1.24,3.25-1.86,8.38-1.86,15.38v32.36h-18.27v-73.01h0Z"/>
    </g>
  </g>
</svg>