<?xml version="1.0" encoding="UTF-8"?>
<svg id="Calque_1" data-name="Calque 1" xmlns="http://www.w3.org/2000/svg" viewBox="0 0 150 150">
  <defs>
    <style>
      .cls-1 {
        fill: #c5d0cd;
      }

      .cls-2 {
        fill: #90c363;
      }

      .cls-3 {
        fill: #244d44;
      }

      .cls-4 {
        fill: #42a9e0;
      }

      .cls-5 {
        fill: #94acb2;
      }

      .cls-6 {
        fill: #85d0f5;
      }

      .cls-7 {
        fill: #e8ecea;
      }

      .cls-8 {
        fill: #e6ebe8;
      }

      .cls-9 {
        fill: #fff;
      }

      .cls-10 {
        fill: #f3a6a4;
      }

      .cls-11 {
        fill: #5fad40;
      }

      .cls-12 {
        fill: #b1cb54;
      }

      .cls-13 {
        fill: #175529;
      }

      .cls-14 {
        fill: #597272;
      }

      .cls-15 {
        fill: #4b9738;
      }
    </style>
  </defs>
  <polygon class="cls-6" points="78.54 34.04 66.24 28.83 55.57 36.87 57.2 50.12 69.5 55.34 80.17 47.3 78.54 34.04"/>
  <polygon class="cls-6" points="62.24 53.56 53.62 52.7 48.56 59.73 52.12 67.63 60.74 68.5 65.8 61.46 62.24 53.56"/>
  <polygon class="cls-6" points="72.32 75.91 63.45 72.14 55.76 77.94 56.94 87.51 65.8 91.27 73.5 85.47 72.32 75.91"/>
  <polygon class="cls-6" points="72.03 94.24 63.16 90.48 55.47 96.27 56.64 105.84 65.51 109.6 73.21 103.8 72.03 94.24"/>
  <polygon class="cls-6" points="55.57 103.4 51.67 101.75 48.29 104.3 48.81 108.5 52.71 110.16 56.09 107.61 55.57 103.4"/>
  <polygon class="cls-6" points="45.41 104.17 38.84 101.38 33.14 105.68 34.01 112.76 40.58 115.55 46.28 111.25 45.41 104.17"/>
  <g>
    <path class="cls-4" d="M73.13,48.01c-5.3,1.08-11.76-5.62-17.04-6.93l1.11,9.04,12.3,5.22,10.67-8.04-.53-4.32c-1.44,2.48-3.75,4.48-6.5,5.04Z"/>
    <path class="cls-4" d="M62.24,53.56l-2.1-.21c.82,1.64.91,3.65-.14,5.2-1.84,2.7-3.99,4.97-7.02,6.28-.6.26-1.21.47-1.82.65l.96,2.14,8.62.87,5.06-7.03-3.56-7.9Z"/>
    <path class="cls-4" d="M72.32,75.91l-8.87-3.76-.74.56c1.68,3.26.13,8.28-4.65,8.28-.73,0-1.39-.12-1.97-.33l.84,6.86,8.87,3.76,7.69-5.8-1.18-9.56Z"/>
    <path class="cls-4" d="M72.03,94.24l-8.87-3.76-.41.31h0c.39.6.65,1.29.79,2,0,0,0,0,0,0,.09.47.13.95.11,1.42,0,.02,0,.03,0,.05-.02.47-.09.93-.21,1.38,0,.02-.01.05-.02.07-.06.19-.12.38-.19.57-.01.03-.03.07-.04.1-.09.21-.18.41-.29.6,0,.02-.02.03-.03.04-.1.17-.21.33-.33.49-.03.04-.07.09-.1.13-.12.15-.25.3-.4.44-.02.01-.03.03-.04.05-.16.15-.32.28-.5.41-.05.03-.1.07-.15.1-.15.1-.3.19-.46.27-.05.03-.1.05-.14.08-.2.1-.42.18-.65.25-.05.01-.1.02-.14.04-.19.05-.39.1-.59.13-.07.01-.14.02-.21.03-.26.03-.52.06-.8.06-.24,0-.47-.01-.69-.04-.05,0-.09-.01-.13-.02-.18-.02-.36-.05-.53-.09-.03,0-.06-.02-.09-.02-.19-.05-.36-.1-.54-.16-.01,0-.02,0-.04-.01-.19-.07-.37-.15-.54-.24l.85,6.93,8.87,3.76,7.69-5.8-1.18-9.56Z"/>
    <path class="cls-4" d="M54.06,102.76c-.83.64-1.92,1.04-3.26,1.04-.57,0-1.09-.08-1.57-.21l-.94.71.52,4.2,3.9,1.65,3.38-2.55-.52-4.2-1.51-.64Z"/>
    <path class="cls-4" d="M35.59,112.44c-.54.03-1.08.04-1.62.03l.04.29,6.57,2.79,5.7-4.3-.53-4.31c-2.61,3.05-5.33,5.19-10.16,5.5Z"/>
  </g>
  <g id="lGRLis">
    <g>
      <path class="cls-15" d="M80.47,117.54v1.79c-.1-.32-.2,1.04-.23,1.04v.02c.02.13.08.7.08.76l-.39.17v-.08c-.11-1.52-.57-4.17-1.24-5.71-.04-.1-.09-.2-.14-.3l-.57-1.12c-.1-.2-1.19-1.8-1.41-2.02-.19-.2-.31-.42-.5-.61l-.72-.76c-.79-.82-1.63-1.54-2.51-2.26-.37-.3-.78-.49-.99-.96.88,0,1.19.62,1.87.57.2.31.49.56.86.6.04,0,.09.04.13.04-.13.06.85.71.98.71.03.01.07.01.1.01-.21-.01.72.86.73.71.35.41.73.79,1.13,1.14.04.18.14.4.35.39,0,.03.03.06.03.1.01.17.13.32.3.34l.04.12c-.01.09,0,.19.08.26.05.04.11.09.17.03-.03.19.21.28.24.45.04.16.28.94.48.76,0,.03,0,.08.01.11.11.34.27.68.42,1.06.21.53.33,1.05.47,1.61.18.69.02,1.09.23,1.03Z"/>
      <path class="cls-11" d="M104.89,28.37c-.41.12.19.51-.07,1.36l-1.68-.35c-.74-.15-.12-.29-.59-.52-.24-3.09-2.33-7.42-6.15-6.95-1.3.16-2.23,1.03-2.93,2.04-.05,0-.16-.03-.22.04-.09.11-.03.25-.03.34,0,.1-.73,1.62-.64,2.17-.09-.01-.19.02-.22.1-.05.14,0,.28.12.32l-.02.44c-.07-.06-.12-.01-.17.02-.12.08-.09.48.08.51v1.46c-.24.12-.52.25-.82.32-.99.23-1.93.55-2.87.91l-.9.35c-.32.13-.64.24-.94.4l-.89.46c-.78.41-2.18,1.39-2.93,1.94-.32.23-.57.48-.86.73l-.6.5-.45.4c.03-.31.06-.51-.03-.72-.06-.14.04-.35.02-.5.07.06.12.01.17-.02.12-.08.09-.48-.07-.51l.03-.69c.08.07.23-.02.23-.14v-2.23c0-.12-.15-.21-.23-.14l-.03-.81c.07-.05.14-.12.14-.2.01-.15-.1-.29-.24-.21l-.03-.56s.19-.1.13-.2c-.04-.08-.15-.16-.23-.09.02-.16-.05-.31-.08-.51-.28-1.6-1.09-3.01-2.38-4-.48-.37-1.27-.72-1.86-.81-1.71-.24-3.1.15-4.35,1.34-.82.78-1.4,1.69-1.79,2.74-.74,2-.62,3-.79,3.61-.1.35.02.72-.06,1.08-.21.95.09,4.57.7,5.21.43.44,1.22.65,1.75.7-.01.09.02.2.09.22.14.05.28,0,.32-.13.35,0,.71.07,1.06.03-.06.04-.04.16.06.19.22.06.46.06.67,0,.09-.03.11-.15.06-.19.38.03.8-.04,1.18-.03.04.08.12.13.2.14.15.01.29-.1.21-.23l.56-.03c.06.02.09.2.21.13.08-.05.16-.15.09-.23.19.01.38-.04.57-.03.05.08.12.14.2.15.16.01.29-.12.21-.26.19.02.38-.1.57-.11.05.04.11.17.2.11s.15-.15.09-.23c.06.01.14,0,.2,0,.02.06.06.1.1.11.05.02.17,0,.17-.06v-.18c.13-.07.25-.13.37-.17.47.07.1.19-.34,1.07-.2.39-.51.69-.51,1.17.09.25.98-1.01,1.07-1.11.77-.95,2.56-2.49,3.59-3.17l.67-.44c.44-.29.86-.53,1.32-.77l.73-.37c.83-.43,2.34-1.04,3.23-1.31l.76-.23,1.32-.37,2.13-.41c.32-.06.65-.08.98-.12l.88-.11c1.1-.14,4.22-.03,5.5.09,1.6.16,3.1.57,4.63,1.01.28.08.5.23.76.32,1.19.44,3.29,1.57,4.24,2.4,1.14,1,2.2,2.08,3.03,3.35.79,1.21,1.4,2.47,1.78,3.85l.24.85c.26.93.48,3.74.36,4.75l-.1.89c-.02.17-.14,1.44-.21,1.22-.16-.08-.96.76-1.15.96-.36.39-1.18,1-1.64,1.32l-1.08.77c-.45.32-.9.55-1.39.82l-.88.47c-.19.1-.37.19-.58.28l-1.17.5c-.83.35-2.78.95-3.66,1.13l-1.22.26-3.11.46-1.97.12c-1.21.07-2.4.09-3.61,0l-1.24-.1-2.07-.26-1.45-.24-1.29-.27c-.35-.07-.65-.15-1-.22l-.84-.18c-.92-.19-1.78-.48-2.69-.73l-.76-.2-1.45-.39c-1.86-.5-1.48-.09-2.31-1.04-.2-.23-.41-.41-.57-.67l-.4-.68c-.68-1.14-.82-1.53-1.19-2.85-.54.16-.4,3.33-.35,3.25-.04.06-.13.07-.2.08.28.05-1.27-.56-1.15-.52-.31-.11-2.35-.73-2.54-.76l-.84-.13c-.33-.05-.66.05-.99-.14l-1.69.05c-.4.01-2.49.37-2.91.52l-.7.25c-.54.19-1.05.4-1.56.64-.12.06-2.53,1.45-2.33,1.69-.09.03-.15.13-.24.15s-.21.07-.32.17l-1.12,1.07-.47.51c-.14.16-.81,1.25-.94,1.49l-.4.71c-.86,1.53-.64,1.68-1.1,2.71-.23.53-.43,1.7-.49,2.29l-.13,1.33c-.04.37-.06.73-.05,1.11l.02,1.11c.02.94.31,1.8.47,2.71.09.53.05.8.37,1.47-.08-.17.34,1.47.44,1.66l.53,1.05c.12.24.33.41.43.68.13.33.45.89.67,1.16.18.21.18.45.34.66l.53.68c.1.13.23.23.35.25,0,.04.02.08.02.12-.05.04-.03.18-.11.2-.25.09-1.09-1.02-1.42-1.4-.36-.42-.93-1.35-1.19-1.27l-.11-.23s0-.74-.38-.64c0-.03-.01-.06,0-.09,0-.06.02-.12,0-.19-.03-.09-.16-.08-.23-.08-.31-.39-.51-.89-.72-1.38-.17-.38-.44-.66-.51-1.04.08.04.11-.03.13-.09.02-.06-.16-.57-.37-.44-.01.04-.62-1.71-.73-2.2l-.34-1.47c-.09-.37-.15-.69-.31-.98.03-.2-.18-1.33-.18-1.47l-.07-3.68c0-.35.17-1.46.14-1.59-.06-.28.1-.51.11-.75.05-.78.09-1.19.22-1.97l.15-.84.42-2.03c.14-.67.29-1.29.51-1.94-.08.23,1.05-3.32.55-2.26l.49-1.04c.06-.12.69-1.58.56-1.57.32,0,.53-.75.78-1.23l.67-1.27c.3-.56.67-1.04,1-1.58.4-.66.89-1.23,1.32-1.87s.98-1.04,1.48-1.8c.21-.33-.06-1.51-.18-1.78-.03-.55.05-1.12-.02-1.72-.14-1.23-.04-1.5,0-2.58l.05-1.34.12-.85.12-.86c.1-.72.31-1.38.5-2.07.35-1.24.9-2.37,1.58-3.46.3-.48.67-.87,1.01-1.3.63-.81,2.06-1.89,3-2.39,2.76-1.47,6.19-1.83,9.09-.47.59.28,1.11.58,1.61.99.85.71,1.73,1.61,2.3,2.56l.32.54c.17.29.3.59.47.88.29.49.81.21,1.8.33l1.08.13c.32.04.59.1.85-.03,0,.08.04.17.16.2,1.4.4,2.73.86,4.02,1.51.21.11,1.05.51,1.16.48.4-.1.21-1.9.16-2.45l-.1-1.1-.11-1.22c-.07-.8-.13-1.53-.14-2.32,0-.21-.15-.41.02-.65-.29-.06-.49.08-.74.12-.08-.16.09-.18.22-.26,1.48-.84,3.44-1.21,5.12-1,2.34.29,3.98,1.16,5.63,2.83,1.14,1.15,2.34,3.1,2.78,4.59l.44,1.51c.11.37.23.71.2,1.06Z"/>
      <path class="cls-7" d="M107.19,104.51c-.17,1.47-.6,3.41-1.12,4.78-.54,1.43-1.55,3.42-2.49,4.6-.29.36-.75.84-.68,1.03-.51.35-.87.89-1.39,1.3-.89.71-1.79,1.32-2.75,1.92l-.9.56-.98.48c-1.28.62-2.59,1.06-3.88,1.4-.09.03-.3-.04-.3.13-.06,0-.14.02-.2,0-.1-.02-.3-.03-.29.11-.06,0-.14.03-.2.01-.11-.03-1.2.14-.91.32-.1-.03-.23.03-.33.01-.04-.05-.09-.12-.17-.09-.06.03-.07.12-.11.13-.05,0-.16.02-.22,0-.18-.03-.35.05-.37.24-.47,0-1.53.12-1.97.22.04-.06-.02-.12-.11-.12h-1.48s-.38.12-.38.12l-4.22-.02s-1.57-.13-1.93-.16h-.05s.05-.13.17-.26c.01-.01.02-.03.04-.03h0c.17-.2.38-.44.25-.62,0-.07.02-.14.02-.2v-.02s.04.04.06.03c.18,0,.45-1.01.17-1.07v-1.79c0-.4.09-.69-.05-1.23l-.29-1.04-.55-1.2c-.04-.08.03-.2-.05-.23-.05-.03-.12-.02-.18,0-.01-.03-.01-.08-.01-.11.04-.17-.27-.93-.48-.76-.03-.17-.27-.26-.24-.45.01-.06.02-.14-.01-.2-.03-.09-.15-.16-.24-.09l-.04-.12c-.06-.16-.1-.36-.3-.34,0-.04-.03-.07-.03-.1.01-.21-.16-.34-.35-.39-.4-.35-.78-.73-1.13-1.14-.03-.18-.51-.74-.73-.71-.03,0-.07,0-.1-.01.09-.31-.87-.71-.98-.71-.04,0-.09-.04-.13-.04,0-.03-.02-.11-.07-.14-.66-.25-.57-1.44-.58-2.17-.01-1.5-.03-4.43.22-5.79l.11-.61c.02-.09.25-1.44.21-1.44.11-.25.15-.45.07-.66-.03-.07.01-.17.02-.25.16-.08.19-.25.23-.45l.18-.94c.04-.23.69-2.59.78-2.88l.42-1.33c.08-.23.22-.4.11-.59l.14-.61c.11-.01.11-.13.14-.25l.1-.4.41-1.06c.09-.23.24-.41.23-.63.03,0,.07.01.1.01h.05c.26-.02.57.01.92.06.54.08,1.15.19,1.72.26l.98.1c1.58.18,3.98.26,5.52.13l1.36-.12,1.09-.13c2.48-.28,5.45-.94,7.82-1.7.52-.17.97-.39,1.5-.5.24-.04.42-.2.65-.28.97-.34,1.89-.68,2.76-1.18.33-.19.67-.34,1.01-.38.32.73.45.85.81,1.7l.85,1.98c.93,2.19,2.18,6.23,2.52,8.61l.09.64c.04.29.08.56.13.84l.11.75c.16.97.03,4.07-.1,5.25Z"/>
      <path class="cls-11" d="M80.01,120.83c-.09-1.5-.62-3.78-1.32-5.3.67,1.54,1.13,4.19,1.24,5.71-.12.13-.21.23-.17.26h.01s.02.01.03.01h.01c.05-.08.09-.14.12-.21.01-.03.03-.06.04-.09h0c.05-.12.07-.24.04-.38Z"/>
      <path class="cls-7" d="M74.94,51.77c.35-.01.93.42,1.33.4.06.04.11.09.15.15.06.15-.03.33,0,.47-.48.24-.98-.09-1.14.48,1.24.75-.64.95.38,1.48.62.33.64,1.2,1.26,1.08,0,.08.09.17.06.26-.08.15.06.45-.09.6l-.54.54c-.61.61-1.07.73-1.05,1.17l-.86.86c-.07.07-.15.13-.22.13-.66-.03-.54.7-1.35.68-.06.2.07.49-.09.63-.54.47-.13.31-.25.92-.02.09-.01.14.07.11-.01.36-.27.44-.23.98-.49.26-1.04,3.38-1.1,4.03l-.12.02c-.24-.3-.39-.73-.73-.98-.19-.1-.47.03-.72,0,0,.34.22.48.43.68.19.19-.27.76.11.77.12,0,.24.05.3-.11.04-.12.03-.28.15-.35.17-.1.35.01.47-.01.05.06-.04.28.11.26-.17,1.01-.06,1.56,0,2.56-.18.04-.88,0-.72.38.13.31.53.24.75.11,0,.04.02.08.01.12,0,.05,0,.13-.03.17-.08.09-1.83.2-2.04.28-.32.12-.59.26-.88.31-.02-.06-.06-.11-.1-.13-.08-.03-.14,0-.16.06-.02.05-.02.12,0,.18-.3.13-.62.32-.84.61-.25.33-.11.73.01,1.07.1.27.31.33.49.49.37.33.66.72,1.05,1.04.35.29.62.65.88.98,0,.34.11.66.26.96l-.15.46c-.06,0-.13,0-.17.02-.07.04-.07.13-.07.24-.01.18.04.29.26.26.1.31.43.56.86.49.09.45,1.31,1.8,1.69,2.1l1.03.81c.15.12.32.24.46.04l-.78-.93-.8-1.16c-.22-.32-.86-1.2-.75-1.45,0-.04.08-.07.13-.15h.37c.32.16.59.44.95.5-.06.06-.02.12.02.17.08.1.19.03.27.04.45.05.94.49,1.32.41.06.5-.81,1.33-.29,2.01.31.4,1.01.4,1.32,0,.16-.2.14-.5.26-.7l.21-.37c.11,0,.22.06.33.16.73.64,1.54,1.09,2.38,1.56,1.08.62,2.19,1.11,3.38,1.52,1.53.53,4.09,1.16,5.68,1.27,2.3.17,3.95.04,6.24-.2,4.41-.67,10.73-2.23,13.96-5.42.53-.52,1.38-1.35,1.61-1.96.34-.02.7.09.91.36.13.88-.31.51-.52,1.04-.04.1-.04.21.08.2-.17.35-.42.68-.72.98-.87.87-1.68,1.73-2.63,2.5-.19.15-.41.24-.59.41-.75.7-1.44.79-1.58,1.27-.19-.13-.51-.15-.71,0-.49.38-1.46.61-1.6.99-.43.03-.79.29-1.22.47-2.76,1.14-5.57,1.95-8.57,2.3-1.01.12-3.76.32-4.65.22-.93-.11-1.28-.02-2.21-.13l-.87-.1-.99-.11-3.38-.53-1.13-.22c-.22-.04-.41-.1-.6-.06-.15-.2-.43-.22-.67-.25s-.46-.04-.69-.05c.06-.05.03-.14-.06-.19-.13-.07-.26-.02-.36-.01-.07,0-.14,0-.21,0,.03-.08-.04-.1-.09-.12-.08-.03-.14,0-.2,0-.07.01-.14,0-.21,0,0-.1-.12-.13-.24-.16l-2.74-.7c-.2-.05-.33-.16-.5-.11s-.58-.19-.81-.17c.06-.09-.01-.2-.14-.23-.75-.17-1.82-.58-2.11-.6-.11,0-.21-.03-.32-.03.07-.07.02-.11-.02-.16-.08-.09-.19-.04-.27-.05-.2-.02-.37-.18-.57-.15.19-.14-.59-.5-.78-.46-.06.01-.14-.03-.2-.02.08-.1-.02-.21-.15-.24-.11-.03-.23-.04-.23-.13,0-.19-.07-.36-.3-.42-.42-.12-.77-.36-1.14-.58l-.72-.41c-.2-.11-.36-.19-.55-.13-.07.02-.16-.02-.23-.05-.05-.02-.1-.03-.15-.04.42.17-1.46-1.38-1.2-1.18,0-.24-.64-.9-.84-1.14-.17-.21-.34-.13-.5-.19-.52-.21-.7-.99-.99-.87,0-.04-.02-.08-.02-.12.01-.29-.75-.9-.74-1.22.08-.4-.22-1-.42-1.35.28-.44.03-1.25.01-1.25-.31-.13-.52.21-1.04.11-.22-.5-.74-1.56-.76-2.08.39-.46-.3-.46.29-.95.14-.12.2-1.2-.24-1.53-1.03-.76-.32-1.57-.89-1.44,0-.16-.04-.32-.03-.48.45-.12-.25-1.53.78-2.09.44-.24-.43-.93.06-1.69.06-.08.33.02.38-.07.17-.3-.08-.58-.38-.68-.69-.24.18-.91-.36-1.14.06-.25.15-.6.27-.84.09.05.24.03.26-.13.01-.12-.02-.2-.04-.26-.06-.27.1-.49.24-.71.24.04.37-.18.77-.3-.1-.23-.18-.43-.1-.67.65.05.65-.72.89-1.22.8-1.68,1.45-1.61,1.56-1.86.08-.19.32-.5.55-.36.17.1.25.32.47.2.41-.23-.11-.65.13-.89.08-.08.85-.43,1.29-.18.21.13.46.17.69.02.06-.04,0-.21-.05-.26-.07-.08-.76.02-.74-.15-.04-.48.72-.66.58-.9.21-.11.46-.35.72-.34-.03.08.03.13.08.15.1.03.15,0,.18-.06.03-.06.03-.13,0-.19.29-.1.6-.33.92-.29.39.04.86.12,1.26-.08.19-.1.44-.21.58.07.13.26.5.45.58.72.05.18-.21.67.21.7.21.01.47-.14.73-.07.42.11.9-.16,1.11-.68.06-.15.41-.15.56-.08l.7.3c.17.07-.18.62.15.78.05.02.14.02.24-.02.72-.34,1.27.05,1.33-.69.04-.51.72-.11.93-.38.39-.5.6,0,.74-.28ZM66.36,54.88c.19-.02.3-.09.28-.21-.02-.13-.06-.28-.22-.26-.02,0-.4.24-.3.37.05.07.12.1.23.09ZM71.04,55.22c0-.08-.06-.14-.14-.14s-.14.06-.14.14.06.14.14.14.14-.06.14-.14ZM60.95,55.42c.02.2.13.21.2.17.07-.04.09-.11.06-.18s-.14-.14-.27.01ZM70.35,56.95c-.27-.02-.39,0-.26.19.1.1.15.21.25.18.1-.03.14-.12.17-.21.02-.07,0-.15-.16-.17ZM75.09,57.42c-.1-.21-.27-.14-.28.06.02.31.31.28.28-.06ZM72.02,57.68c0-.08-.06-.14-.14-.14s-.14.06-.14.14.06.14.14.14.14-.06.14-.14ZM70.66,60.25c.18.02.33-.09.36-.19.13-.45-.42-.45-.65-.79l.56-.59c.1-.1.12-.21.06-.32-.02-.04-.09-.07-.21-.08-.22-.03-.35.05-.38.26-.06.42-.54.07-.59.3-.1.55.16-.16.11.71l-.04.66c-.01.23-.24.35-.12.53s.25.31.54.25c.47-.1-.28-.81.35-.74ZM71.57,60.83c.11-.3.16-.53.54-.69-.2-.12-.25-.32-.34-.36-.26-.11-.34.15-.41.31-.15.34-.51.6-.52.98,0,.21.15.41.07.67-.55,1.61,1.1-2.08.66-.91ZM65.21,61.01c-.21,0-.42.06-.42.22,0,.19.19.28.29.28.11,0,.37.01.42-.15.06-.21-.04-.34-.29-.35ZM62.89,62.6c.09.18.29.14.41.03.08-.07.12-.16.05-.27-.06-.1-.13-.24-.3-.18-.16.05-.23.25-.15.42ZM68.53,62.69c.27-.12.21-.33.08-.43-.09-.07-.21-.08-.33.05-.09.1-.12.18-.08.24.04.08.11.13.34.13ZM71.07,64.85l.3-.11c-.09-.37-.2-.74-.44-1.07-.13-.18-.36-.06-.53-.04-.35.05-.12-.85-.65-.69-.36.11-.1.53-.33.7-.26.2-1.8.12-.9.42-.03-.01.96.04,1.12.05s.2.38.35.41c.07.01.15,0,.24-.04.49-.24.3.56.83.36ZM65.99,66c.47-.18.66-.72.62-1.17.41-.14,1.12.13,1.43-.33.1-.15.03-.38.01-.58-1.14.49-1.24-.37-1.67.17-.1.12-.36.04-.45.14-.33.37.25.86.19.99-.15.32-.84.07-1.4.25-.14.04-.15.41,0,.42.45.02.85.27,1.25.12ZM63.32,64.55c0-.18-.27-.18-.28,0-.01.33.3.33.28,0ZM68.04,65.36c-.24-.16-.61-.1-.67.03-.11.25.04.25.22.28.24.04.62-.19.45-.31ZM59.38,66.27c-.02-.25-.43-.38-.55-.16-.1.19.13.36.23.36.1,0,.33,0,.32-.2ZM65.85,67.05c-.04-.17-.32-.37-.42-.19-.08.15-.02.32-.12.36-.09.04-.17.02-.3.03-.24.02-.56-.1-.48-.38.1-.32.18-.59.02-.93l-.48.26c-.2.11.31.65-.02.88-.12.09-.17.19-.08.3.16.18.49-.16.68.12.06.09.06,1.38.42,1.19.06-.03.13-.12.13-.25.03-1.08.8-.78.65-1.41ZM70.1,69c-.05-.22-.25-.23-.28-.06-.02.16-.17.39-.12.47.1.18.29.04.34-.03.05-.06.1-.17.05-.38ZM62.08,71.17c.24.08.4-.29.36-.48-.08-.44.65-.27.34-.74-.13-.2-.25-.27-.41-.27-.56-.01-.25.4-.91.4-.15,0-.37.22-.25.31.17.13.38.03.55.13.11.18.05.56.31.66Z"/>
      <path class="cls-5" d="M114.53,65.51c.06.15.2.27.37.27-.07.09.02.17.1.22.05.03.14-.02.18,0,.6.34,1.56.86,1.55,1.82,0,.54-.68,1.09-1.11,1.31l-1.53.8c-.39.2-.6.57-.41.95-.51.18-2.62-.07-3.17.06l-.38.09c-.37.08-1.56.2-1.47,1.04.1.9,2.62.64,3.46.59.1.63-.59,1.46-.74,1.94-.2.06-.41,0-.64-.1-.65-.25-2.9-1.04-2.98.03-.07.9,1.64,1.05,1.9,1.39-.23.61-1.09,1.44-1.61,1.96-3.23,3.19-9.55,4.75-13.96,5.42-2.28.24-3.94.36-6.24.2-1.59-.11-4.16-.75-5.68-1.27-1.19-.41-2.3-.9-3.38-1.52-.84-.48-1.65-.92-2.38-1.56-.11-.1-.22-.16-.33-.16.32-.56.58-1.19,1.08-1.68.28-.28.19-.68.06-.9-.18-.3-.54-.44-.93-.33-.96.26-1.25,1.27-1.71,1.97-.39.08-.87-.36-1.32-.41.08-.1-.02-.19-.1-.22-.07-.03-.14.01-.19,0-.36-.06-.63-.34-.95-.5l-.04-.16c.01-.55,1.57-.9,2.1-.98.48-.07.72-.49.64-.94-.14-.81-1.13-.69-1.69-.55-1.33.35-1.55.73-2.6,1.4-.28-.15-.4-.37-.74-.45-.26-.32-.53-.69-.88-.98-.39-.32-.68-.7-1.05-1.04-.18-.17-.39-.22-.49-.49-.13-.33-.26-.74-.01-1.07.22-.29.54-.48.84-.61.09,0,.27.01.27-.11.29-.05.56-.19.88-.31.21-.08,1.96-.19,2.04-.28.03-.04.02-.12.03-.17.11-.28.97.85,1.13,1.06.2.25.56.33.77.57.94,1.07,3.34,2.03,4.45,2.12l1.37.12c.31.03.64.04.96.02l1.11-.1c1.36-.12,3.71-.86,4.86-1.61l2.17-1.41c.75-.49,1.99-1.22,2.78-1.26-.13.49-.21.23-.59,1.12-.6,1.4.72,2.57,2.02,2.86.34.07.63.26,1.03.2.11-.02.2.08.25.11.08.91-.38,1.85-1.32,2.15-1.28.41-2.96-.21-4.17-.72-1.04-.45-1.77-1.54-2.51-1.28-.68.24-.49,1.71-.4,2.26.83,2.43,2.32,4.92,5.1,5.27,1.38.17,2.71-.04,3.84-.88,1.84-1.37,1.52-2.97,1.95-3.43.17-.19,2.11-.95,2.49-1.08.23-.08.46-.13.66-.34-.64-.23-1.63.17-2.71.02-.98-.13-1.55-1.08-1.47-1.96.23-.28,1.08-.47,1.55-.81,1.37-1,1.2-1.89.79-3.25,2.29.81,4.27,2.13,6.96,1.67,2.14-.37,4.31-1.54,5.55-3.35.33-.48.57-1.01.79-1.54.36-.86.32-1.57.54-2.18.15-.01.32.03.51.1l1.97.73c.29.11.53.21.81.16ZM113.54,70.56c.03-.13.04-.22-.08-.29-.23.1-.4.17-.56.36.09.24.24.3.46.23.09-.12.14-.2.19-.3Z"/>
      <path class="cls-15" d="M115.55,49.46c.06.24-.37,1.52-.37,1.6.02.33-.22.58-.38.85-.09-.05-.2,0-.24.08-.03.06,0,.14,0,.2-.01.16-.17.3-.18.46-.24.02-.4.26-.43.48-.2.27-.5.48-.66.77-.14-.01-.25.09-.36.2l-.68.68-.59.39c-.37.25-.68.55-1.08.76-.16.08-.29.16-.33.3-.19-.07-2.38,1.11-2.32,1.11l-.36-.02c-.22-.01-.36.11-.4.27-.83.01-1.54.36-2.67.6l-1.73.37c-.35.07-.66.17-.97.13,0-.06-.04-.12-.08-.14-.09-.04-.14-.01-.17.05-.03.06-.06.12-.02.18-.07,0-.14.04-.2.04-.21,0-1.06-.06-1.02.1-.49.02-1.03-.03-1.58.03-1.37.14-1.16.04-2.33,0l-1.72-.06c-.46-.02-.93-.11-1.34-.09-.03-.11-1.2-.15-1.35-.14-.03-.09-.1-.17-.21-.17-.09,0-.17.05-.27.06-.16.02-.57-.14-1.1-.14.07-.08,0-.19-.09-.22s-.19.05-.21.12c-.1,0-.21-.02-.31-.02.07-.08,0-.19-.09-.23s-.19.05-.2.13c-.15,0-.29-.03-.44-.03.06-.07.02-.12-.02-.17-.09-.1-.19-.04-.28-.03-.53.06-2.15-.5-2.81-.53-.08-.33,0,.02-.9-.51-.2-.12-.45-.05-.68-.09-.19-.03-.31-.21-.49-.23-.32-.03-.6,0-.87-.05.02-.06-.03-.11-.12-.16l-.89-.47c-.54-.29-2.12-.32-1.91-.28-.04,0-.08-.02-.12-.02.04-.06.03-.13,0-.19-.06-.11-.18-.04-.27-.05-.28-.04-1.03-.88-1.07-1.02-.06-.26-.13-.34-.37-.44-.44-.17-.51-1.17-1.85-1.58-.04-.06-.09-.11-.15-.15v-.15c.08-.01.17-.02.21-.08-.05.08-.19-3.09.35-3.25.37,1.32.51,1.7,1.19,2.85l.4.68c.15.26.37.44.57.67.83.94.45.53,2.31,1.04l1.45.39.76.2c.91.24,1.77.54,2.69.73l.84.18c.35.07.65.15,1,.22l1.29.27,1.45.24,2.07.26,1.24.1c1.21.1,2.4.08,3.61,0l1.97-.12,3.11-.46,1.22-.26c.87-.18,2.83-.78,3.66-1.13l1.17-.5c.21-.09.39-.18.58-.28l.88-.47c.49-.26.94-.49,1.39-.82l1.08-.77c.46-.32,1.28-.93,1.64-1.32.19-.2.98-1.05,1.15-.96Z"/>
      <path class="cls-2" d="M115.18,51.06c0-.09.43-1.36.37-1.6.06.22.19-1.05.21-1.22l.1-.89c.11-1.01-.1-3.82-.36-4.75l-.24-.85c-.38-1.38-.99-2.64-1.78-3.85-.83-1.28-1.89-2.35-3.03-3.35-.95-.83-3.05-1.96-4.24-2.4-.26-.1-.48-.24-.76-.32-1.53-.44-3.03-.85-4.63-1.01-1.27-.13-4.39-.24-5.5-.09l-.88.11c-.33.04-.66.06-.98.12l-2.13.41-1.32.37-.76.23c-.9.27-2.41.89-3.23,1.31l-.73.37c-.47.24-.88.48-1.32.77l-.67.44c-1.03.67-2.81,2.21-3.59,3.17-.09.11-.98,1.36-1.07,1.11,0-.48.31-.78.51-1.17.44-.89.82-1,.34-1.07.29-.6,1.28-1.13,1.46-1.92.03-.14.02-.28.12-.33.09.21.06.41.03.72l.45-.4.6-.5c.3-.25.55-.5.86-.73.76-.55,2.15-1.53,2.93-1.94l.89-.46c.31-.16.62-.27.94-.4l.9-.35c.94-.37,1.88-.68,2.87-.91.3-.07.58-.2.81-.32.22.14.4,0,.63-.03l.74-.06,1.21-.16.99-.1c1.15-.12,1.75.03,2.66-.16.4.2,1.17.08,1.86.16.38.05,1.88.26,2.05.17.09-.05.04-.26.06-.32.47.23-.15.36.59.52l1.68.35c.26-.85-.34-1.23.07-1.36.29.29.01,1.4.7,1.59,1.01.29,2.32.81,3.26,1.26,1.26.6,3.4,2.16,4.26,3.23,1.35,1.68,2.18,2.91,2.87,4.99.61,1.85,1.03,4.4.82,6.28-.19,1.73-.63,3.55-1.36,5.13-.07.14-.12.25-.27.19Z"/>
      <path class="cls-1" d="M61.75,121.11c-.17-.02-.34-.03-.52-.03h-.02s-.07-.02-.12-.03l-2.41-.4c-1.32-.22-2.54-.59-3.81-.98-.55-.18-1.09-.32-1.65-.54l-1.07-.41c-1.17-.45-2.51-1.1-3.6-1.69l-.96-.51c-1.22-.65-3.75-2.51-4.61-3.59-.09-.12-.22-.19-.21-.32l.03-.35,1.34.61c0,.13.17.15.27.13.24.21,1.99.97,2.34,1.09,4.31,1.43,4.6,1.54,9.19,2.19l.86.12c1.08.16,2.56.18,3.57.15,0,.1.16.12.24.2.13.14.05.34.09.51l.45,1.87c.07.31.13.59.23.89l.25.73c.03.1.08.23.12.36Z"/>
      <path class="cls-8" d="M113.3,53.89c-.31.57-.48.45-.82,1.06.4,1.09.81,2.1,1.08,3.22l.36,1.5c.51,2.13.53,3.76.62,5.84-.27.05-.52-.05-.81-.16l-1.97-.73c-.19-.07-.35-.12-.51-.1l-.03-3.42c0-1.1-.33-2.13-.57-3.19l-.39-1.7c.04-.14.17-.21.33-.3.4-.21.71-.51,1.08-.76l.59-.39.68-.68c.11-.12.22-.22.36-.2Z"/>
      <path class="cls-15" d="M106.57,113.08c-.27.3-.48.66-.73.98-.22.29-.45.52-.7.79l-.54.6c-.09.11-1.14,1.13-1.24,1.17-.22.11-.36.29-.53.46-.35.34-.79.51-1.18.79-.28.19-.54.42-.83.6l-1.3.78-1.46.76c-.67.35-1.35.62-2.05.9-.45.18-.9.3-1.35.49l-.85.34-.77.22c-.6.17-2.08.48-2.3.57-.1.04-.15.01-.18-.04-.03-.06-.04-.14-.07-.21-.03-.09-.08-.15-.22-.11v-.24c.22-.12-.07-.45,0-.71.06.01.17,0,.22,0-.03.11.13.13.21.1.06-.02.1-.08.07-.14.1.02.23-.04.33-.01.18.07.88-.15.89-.15.04-.05.08-.11.02-.17.06.02.14-.01.2-.01.02.09.13.15.2.11.09-.04.16-.15.09-.22.06.01.14,0,.2,0,.02.09.14.15.2.11.1-.06.17-.16.1-.24,1.29-.34,2.6-.78,3.88-1.4l.98-.48.9-.56c.96-.6,1.86-1.21,2.75-1.92.52-.41.88-.95,1.39-1.3-.06.04.58-.15,1.25-.83.1-.1,1.35-1.44,1.36-1.45l.55-.67c.55-.69,1.21-1.51,1.68-2.24.13-.2.18-.43.43-.56.02-.15.13-.13.11,0,.31.74-1.3,3.46-1.71,3.91Z"/>
      <path class="cls-15" d="M86.07,25.07c-.05-.24.22-.41.27-.62.26.05.34-.42.35-.64s.14-.44.26-.59c.09,0,.22.02.25-.07.02-.08,0-.15-.02-.2-.03-.25.34-.72.51-.84.24-.01.32-.17.33-.38,0-.18.85-1.02,1.04-1.08.21,0,.41-.06.55-.29.22-.09.4-.22.4-.43.08-.22.29-.24.49-.28.24-.04.44-.17.74-.12-.17.23-.02.43-.02.65.01.79.07,1.53.14,2.32l.11,1.22.1,1.1c.05.54.24,2.34-.16,2.45-.1.03-.94-.37-1.16-.48-1.29-.65-2.62-1.11-4.02-1.51-.12-.03-.17-.13-.16-.2Z"/>
      <path class="cls-15" d="M115.11,87.77c-.36.52-.61,1.08-1.02,1.57-.1.12-.14.24-.14.35,0,.06-.03.09-.03.11-.19-.14-.9,1.06-1.34,1.33-.21.37-.49.67-.87.87l-.6.62c-.08.08-.11.15-.12.22-.09.11-.15.16-.22.17-.74.19-.49.39-1.37.85-.27.14-.46.29-.73.48-.31-1.63-.76-3.1-1.24-4.63l-.32-1.05-.4-1.08c-.36-1-.6-1.44-1-2.43-.17-.14-.04-.33.12-.18.51.48,1.08,1.41,1.44,1.96l.68.99.65,1.18.79,1.83c.08.19.44.14.59.05l1.06-.66,1.46-1.07c.45-.33.88-.57,1.27-.97l1.04-1.05c.21-.21.36-.53.65-.67.48.16-.19,1-.35,1.21Z"/>
      <path class="cls-3" d="M113.68,70.89c.36.43,1.4.27,1.56,1.15.03.14-.1.48-.24.52-.54.17-1.33-.03-1.81.16-.38-.13-.72-.08-1.07-.06-.84.05-3.36.3-3.46-.59-.09-.84,1.11-.96,1.47-1.04l.38-.09c.55-.13,2.66.12,3.17-.06Z"/>
      <path class="cls-3" d="M111.37,74.61c0,.52.53,0,.74.46.12.27.34.47.58.49.06.08.15.15.25.18.03.24.25.42.48.44.06.3.54.48.35,1.35-1.4.29-1.78-.65-2.15-.61.08-.14-.09-.2-.23-.28-.13-.07-.26-.12-.3.01-.07,0-.14,0-.22,0,.03-.08,0-.17-.04-.25-.05-.1-.17-.15-.29-.1-.2-.28-.57-.38-.91-.36-.26-.34-1.97-.49-1.9-1.39.08-1.07,2.34-.28,2.98-.03.23.09.43.16.64.1Z"/>
      <path class="cls-2" d="M60.49,76.7c.29-.12.47.67.99.87.02.23.3.32.42.5.26.4.61.59.92.83-.25-.2,1.62,1.35,1.2,1.18-.53-.03-.1.46-.57.51.02-.2,0-.49-.25-.49.2-.3-1.12-.92-1.39-1.33-.22-.34-.58-.47-.85-.74l-1.61-1.58c-.07-.07-.78-.99-.85-1.1-.18-.26-.48-.39-.61-.64-.08-.15-.05-.35-.12-.5.27-.08.84.86,1.19,1.27.33.38,1.17,1.49,1.42,1.4.07-.03.06-.17.11-.2Z"/>
      <path class="cls-15" d="M104.86,83.08c0,.08.02.28-.11.33-.39.17-1.63.98-1.98,1.23-.14-.24-.34-.66-.49-.94.14-.39,1.11-.62,1.6-1,.21-.15.52-.14.71,0,.1.07.03.41.27.38Z"/>
      <path class="cls-1" d="M113.18,72.73c-.42.25-.77,1.18-1.07,1.79-.24.49.5.63.58,1.04-.25-.02-.46-.22-.58-.49-.21-.46-.75.06-.74-.46.16-.48.84-1.32.74-1.94.34-.02.69-.07,1.07.06Z"/>
      <path class="cls-11" d="M113.93,89.8c.01.25-.86,1.15-1.06,1.39-.32.39-.61.76-1.04,1.05-.37.25-.56.63-.84.61.01-.07.05-.15.12-.23l.6-.62c.38-.2.66-.49.87-.86.44-.27,1.16-1.47,1.35-1.34Z"/>
      <path class="cls-11" d="M90.01,19.92c0,.21-.17.34-.4.43-.14.22-.35.29-.55.29.19-.35.57-.61.95-.72Z"/>
      <path class="cls-11" d="M90.27,121.22c-.07.26.22.59,0,.7-.19-.11-.11-.38-.37-.47.02-.19.2-.27.37-.24Z"/>
      <path class="cls-1" d="M110.89,76.65c-.26.22-.62.59-.77.89-.12.01-.12-.1-.08-.2.21-.54.65-.16.52-1.04.12-.05.23,0,.29.1.04.08.08.17.04.25Z"/>
      <path class="cls-11" d="M86.69,23.82c0,.21-.09.68-.35.64.05-.24.03-.6.35-.64Z"/>
      <path class="cls-1" d="M113.43,76.17c-.24-.02-.45-.2-.48-.44.23.07.44.2.48.44Z"/>
      <path class="cls-8" d="M114.39,52.64c0,.25-.2.41-.43.48.04-.22.2-.46.43-.48Z"/>
      <path class="cls-1" d="M111.63,76.91c-.2.02-.46-.05-.53-.26.04-.13.17-.08.3-.01.14.07.31.14.23.28Z"/>
      <path class="cls-11" d="M88.02,21.72c-.01.22-.09.37-.33.38.02-.18.14-.36.33-.38Z"/>
      <path class="cls-2" d="M114.8,51.9c-.04.06.03.2-.07.26-.06.04-.1.08-.17.02,0-.06-.03-.13,0-.2.04-.09.15-.14.24-.08Z"/>
      <path class="cls-8" d="M115.17,66.01s-.13.02-.18,0c-.08-.05-.17-.13-.1-.22.08,0,.2-.05.26.05.03.04,0,.13,0,.18Z"/>
      <path class="cls-11" d="M87.18,22.95c0,.05.04.13.02.2-.03.1-.16.08-.25.07.03-.06-.03-.19.07-.25.06-.04.09-.09.16-.02Z"/>
      <path class="cls-2" d="M62.57,80.23s-.09,0-.14.02c-.03-.15.15-.19.14-.02Z"/>
      <path class="cls-8" d="M80.97,28.35c-.01.1-.04.28.1.29l.03.56c0,.14-.08.36.09.42l.03.81c.03.83.03,1.67,0,2.5l-.03.69c-.15-.1-.11.47-.1.53.02.15-.08.36-.02.5-.1.05-.09.19-.12.33-.17.8-1.17,1.33-1.46,1.92-.13.04-.25.1-.36.17-.1,0-.29,0-.28.13-.06,0-.14.02-.2,0-.1-.02-.29-.02-.29.12-.19.01-.38.13-.57.11-.13-.01-.36-.05-.41.11-.18,0-.38.05-.57.03-.1,0-.28-.05-.29.1l-.56.03c-.14,0-.36-.08-.42.09-.38,0-.8.06-1.18.03-.27-.02-.52-.02-.78,0-.35.03-.71-.04-1.06-.03-.05-.16-.28-.11-.41-.1-.53-.04-1.32-.25-1.75-.7-.61-.64-.92-4.26-.7-5.21.08-.36-.04-.73.06-1.08.17-.62.05-1.61.79-3.61.39-1.05.96-1.96,1.79-2.74,1.26-1.19,2.64-1.57,4.35-1.34.6.08,1.38.44,1.86.81,1.29,1,2.1,2.4,2.38,4,.03.2.11.35.08.51Z"/>
      <path class="cls-2" d="M61.34,53.77c0,.08-.03.16-.11.24l-1.41,1.41c-.4.4-1.96,2.81-1.95,3.38-.14.22-.3.44-.24.71-.21,0-.16.26-.22.39-.12.24-.21.59-.27.84-.02.08-.09.21-.12.37l-.14.73c-.21,1.1-.33,2.21-.33,3.32v.99c0,.13.05.2.09.24-.01.16.03.32.03.48,0,.52.06,1.05.2,1.61l.39,1.61c.06.27.07.54.25.7.02.53.55,1.59.76,2.08.29.67.68,1.31,1.06,1.99.12.21.17.44.39.51-.02.31.75.92.74,1.22-.12-.02-.25-.12-.35-.25l-.53-.68c-.16-.2-.16-.45-.34-.66-.23-.26-.55-.83-.67-1.16-.1-.27-.31-.45-.43-.68l-.53-1.05c-.1-.19-.51-1.83-.44-1.66-.31-.67-.27-.94-.37-1.47-.16-.91-.45-1.77-.47-2.71l-.02-1.11c0-.37.02-.73.05-1.11l.13-1.33c.06-.59.26-1.76.49-2.29.45-1.03.24-1.18,1.1-2.71l.4-.71c.13-.24.8-1.33.94-1.49l.47-.51,1.12-1.07c.1-.1.22-.14.32-.17Z"/>
      <path class="cls-2" d="M76.28,52.02v.15c-.42.02-1-.41-1.34-.4-1.64-.94-4.91-1.3-6.85-.93l-.59.11s-2.2.47-1.69.55c-.32-.03-.64.19-.92.29-.08.03-.21.04-.27.1-.25-.01-.51.23-.72.34-.23.12-.52.18-.76.39-.18.15-1.36.92-1.57,1-.2-.24,2.21-1.64,2.33-1.69.51-.24,1.02-.44,1.56-.64l.7-.25c.42-.15,2.51-.51,2.91-.52l1.69-.05c.32.19.65.09.99.14l.84.13c.19.03,2.23.65,2.54.76-.12-.04,1.43.57,1.15.52Z"/>
      <path class="cls-8" d="M63.91,52.23c.13.24-.62.42-.58.9-.03.17.67.07.74.15.05.05.11.22.05.26-.23.14-.48.1-.69-.02-.43-.25-1.21.1-1.29.18-.24.24.28.67-.13.89-.23.12-.31-.1-.47-.2-.23-.14-.46.18-.55.36-.11.25-.76.18-1.56,1.86-.24.5-.24,1.26-.89,1.22-.08.24,0,.44.1.67-.4.12-.53.34-.77.3-.02-.57,1.54-2.98,1.95-3.38l1.41-1.41c.08-.08.12-.16.11-.24.1-.02.16-.12.24-.15.21-.08,1.39-.85,1.57-1,.25-.21.53-.27.76-.39Z"/>
      <path class="cls-2" d="M81.22,32.93c.04-.83.03-1.67,0-2.5.08-.08.22.02.22.14v2.23c0,.12-.15.21-.23.14Z"/>
      <path class="cls-2" d="M74.36,37.83c.06.04.04.16-.06.19-.22.06-.46.06-.67,0-.09-.03-.12-.15-.06-.19.27-.03.52-.02.78,0Z"/>
      <path class="cls-2" d="M57.66,73.99c-.21-.14-.4-.38-.38-.64.37-.1.37.62.38.64Z"/>
      <path class="cls-2" d="M81.09,34.15c0-.07-.05-.64.1-.53.16.03.2.44.07.51-.05.03-.11.08-.17.02Z"/>
      <path class="cls-2" d="M55.81,70.58c-.03-.17-.31-.3-.24-.53.2-.13.38.37.37.44s-.05.13-.13.09Z"/>
      <path class="cls-2" d="M92.47,27.37s.07.66-.09.53c-.17-.03-.2-.43-.08-.51.05-.03.1-.08.17-.02Z"/>
      <path class="cls-2" d="M92.59,26.51c.02.14.07.36-.1.42-.12-.04-.17-.18-.12-.32.03-.08.13-.11.22-.1Z"/>
      <path class="cls-2" d="M81.19,29.62c-.18-.05-.09-.28-.09-.42.14-.08.25.07.24.21,0,.08-.07.16-.14.2Z"/>
      <path class="cls-2" d="M77.79,37.44c.09.13-.05.27-.21.26-.08,0-.16-.07-.2-.15.05-.16.28-.12.41-.11Z"/>
      <path class="cls-2" d="M72.52,37.8c-.04.12-.18.18-.32.13-.08-.03-.11-.13-.09-.22.13-.01.36-.07.41.1Z"/>
      <path class="cls-2" d="M75.95,37.71c.08.14-.07.25-.21.23-.08,0-.16-.06-.2-.14.06-.18.28-.09.42-.09Z"/>
      <path class="cls-2" d="M93.47,23.95c.02.16-.08.37-.25.38,0-.09-.06-.23.03-.34.06-.07.17-.04.22-.04Z"/>
      <path class="cls-2" d="M57.28,73.27c-.06.06-.12.04-.17-.02-.07-.07-.08-.17-.06-.26.08,0,.21,0,.23.08.02.07.01.14,0,.19Z"/>
      <path class="cls-2" d="M76.81,37.59c.07.08-.01.18-.09.23-.11.07-.15-.11-.21-.13.01-.14.2-.1.29-.1Z"/>
      <path class="cls-2" d="M78.65,37.21c.07.08,0,.17-.09.23s-.15-.08-.2-.11c0-.14.19-.14.29-.12Z"/>
      <path class="cls-2" d="M79.13,37.07v.18c-.01.06-.13.08-.18.06-.04-.01-.08-.05-.1-.11,0-.14.18-.13.28-.13Z"/>
      <path class="cls-2" d="M81.07,28.64c-.14,0-.11-.2-.1-.29.08-.07.18,0,.23.09.05.1-.08.16-.13.2Z"/>
      <path class="cls-1" d="M77.4,88.48h.05c-.05.15-.07.2-.05,0Z"/>
      <path class="cls-1" d="M102.78,84.74c-.34.04-.68.19-1.01.38-.87.5-1.79.84-2.76,1.18-.23.08-.41.24-.65.28-.53.11-.98.33-1.5.5-2.37.76-5.34,1.42-7.82,1.7l-1.09.13-1.36.12c-1.54.13-3.94.05-5.52-.13l-.98-.1c-.57-.07-1.18-.18-1.72-.26-.34-.05-.66-.08-.92-.06.01-.04.02-.08.03-.13.02-.06.03-.13.05-.2.03-.14.07-.28.09-.4.02-.06.03-.12.04-.16t.01-.02c.09-.05.24-.11.27-.25.23-.87.62-1.13.72-1.78.18-.04.37.01.6.06l1.12.22,3.39.53.99.11.87.1c.93.11,1.27.02,2.21.13.89.1,3.64-.1,4.64-.22,3-.35,5.82-1.16,8.58-2.3.43-.18.79-.44,1.22-.47.15.28.35.7.49.94,0,.03-.01.08,0,.1Z"/>
      <path class="cls-15" d="M78.38,85.74l-.53,1.19c-.11.24-.14.43-.18.64-.05.19-.16.67-.22.91-.05.15-.07.2-.05,0-.03,0-.07-.01-.1-.01-.05-.06-.13-.14-.26-.17l-1.22-.37-1.64-.44c-.35-.09-.66-.22-1.01-.32l-1.32-.4-2.28-.67c-1.83-.53-1.04-.38-2.64-1.07-.5-.21-.92-.56-1.44-.73-.74-.24-1.36-.66-2.04-1.03l-.47-.27c-.13-.07-.19-.19-.31-.22-.11-1.32.43-1.02.77-2.19.47-.05.05-.53.58-.51,0,0,.03.01.05.01.03,0,.06.02.09.03.02.21.19.36.4.36.11,0,.21.09.32.12-.07.1,0,.21.08.24.07.03.14,0,.2,0,.31.03.93.62,1.68.86-.14.22.37.4.64.36.07,0,.14.04.2.02-.19.13.57.49.79.46.2-.02.37.14.57.15-.08.1.01.2.09.23.07.02.14-.02.2-.02.11,0,.21.03.32.04-.32.19,2.02.85,2.25.83.22-.02.64.22.81.17-.07.11.09.22.23.26l.95.26c.06.02,2.6.69,2.3.44.06,0,.13.02.2.01-.07.07,0,.17.09.22.07.04.18-.02.2-.11.06.01.13.02.2.01-.06.05-.03.14.06.19.13.08.26.01.36.01.23.01.46.02.69.05-.19.08.51.19.39.45Z"/>
      <path class="cls-1" d="M74.58,108.67c-.37-.04-.66-.29-.86-.6.05-.85.04-1.72-.05-2.61-.05-.56-.02-1.08.01-1.64l.09-2.01.14-1.2.42-2.47c.02-.1-.01-.18.06-.25.03-.04.08-.1.15-.03.08.21.04.41-.07.66.04,0-.19,1.35-.21,1.44l-.11.61c-.25,1.36-.23,4.29-.22,5.79.01.73-.08,1.92.58,2.17.05.03.07.11.07.14Z"/>
      <path class="cls-1" d="M76.17,92.01l-.42,1.33c-.09.29-.74,2.65-.78,2.88l-.18.94c-.04.2-.07.37-.23.45.17-1.84.77-3.65,1.37-5.47.1-.29.18-.55.35-.72.11.19-.03.36-.11.59Z"/>
      <path class="cls-1" d="M80.47,117.54c-.21.06-.05-.34-.23-1.03-.14-.56-.27-1.08-.48-1.61-.15-.38-.31-.71-.42-1.06.05-.02.13-.02.18,0,.07.04.01.15.05.24l.55,1.2.29,1.04c.15.53.06.83.05,1.22Z"/>
      <path class="cls-1" d="M75.69,109.42c-.13,0-1.11-.65-.98-.72.11,0,1.07.4.98.72Z"/>
      <path class="cls-1" d="M76.53,110.14c-.01.15-.94-.71-.74-.71.22-.03.7.53.74.71Z"/>
      <path class="cls-1" d="M80.24,120.36c.02.11.13-1.35.23-1.03.31.08-.05,1.3-.23,1.03Z"/>
      <path class="cls-11" d="M92.01,120.84c.06.06.02.12-.02.17,0,0-.71.23-.89.16-.29-.18.8-.36.91-.33Z"/>
      <path class="cls-1" d="M79.35,113.74c-.2.17-.45-.61-.48-.76.21-.17.51.59.48.76Z"/>
      <path class="cls-2" d="M76.66,90.16l-.1.4c-.03.12-.03.24-.14.25-.25-.03.06-.64.07-.64.04-.03.11-.04.17-.01Z"/>
      <path class="cls-1" d="M78,111.67c-.2.01-.3-.21-.34-.38.19.05.35.17.34.38Z"/>
      <path class="cls-1" d="M78.33,112.11c-.17-.02-.29-.17-.3-.34.2-.02.24.18.3.34Z"/>
      <path class="cls-1" d="M78.62,112.52c-.06.06-.12.01-.17-.03-.08-.07-.1-.17-.08-.26.09-.07.21,0,.24.09.02.07.02.15,0,.21Z"/>
      <path class="cls-11" d="M93.01,120.58c.07.08,0,.18-.1.24-.06.04-.18-.02-.2-.11,0-.17.21-.1.3-.13Z"/>
      <path class="cls-11" d="M92.5,120.72c.07.08,0,.18-.09.23-.07.04-.18-.03-.2-.11,0-.14.19-.13.29-.11Z"/>
      <path class="cls-11" d="M90.78,121.17c.02.06-.01.12-.07.14-.08.03-.24,0-.2-.11.04,0,.05-.1.1-.12.08-.04.13.03.18.09Z"/>
      <path class="cls-15" d="M60.37,116.55c-1.01.03-2.49.01-3.57-.15l-.86-.12c-4.59-.65-4.88-.76-9.19-2.19-.35-.12-2.1-.88-2.34-1.09,0-.05.04-.17-.03-.24-.1-.1-.23.03-.24.11l-1.34-.61c.04-.52-.84-1.32-.02-.86l1.18.67.52.32,1.38.72c.89.46,2.6,1.05,3.56,1.24l1.02.2.97.13.87.11c1.05.13,3.74.07,4.75-.32.71-.28.98-.96.82-1.67-.23-.99-.4-2.02-.53-3.03l-.13-1.09c-.08-.66-.15-5.14.35-5.58.35-.07.2,1.46.28,2.13l.1.88.14,1.08.14.92c.07.43.15.82.25,1.24l.2.79c.56,2.24.84,2.59,1.49,4.62.19.61.21,1.21.23,1.79Z"/>
      <path class="cls-15" d="M64.76,96.63c-1.65.29-2.22-.58-3.24.35-.79.37-1.7-.13-2.54-.09-.12,0-.14-.33-.1-.45.17-.41.18-.8.26-1.23.07-.36.24-.67.09-1.08.59.06,1.79.73,1.94.85l1.1.4c.28.1.5.35.8.43l.75.21c.15.04,1.2.18.94.61Z"/>
      <path class="cls-14" d="M110.26,56.22l.39,1.7c.24,1.06.56,2.09.57,3.19l.03,3.42c-.22.6-.18,1.32-.54,2.18-.23.54-.47,1.07-.79,1.54-1.24,1.81-3.41,2.99-5.55,3.35-2.69.46-4.67-.86-6.96-1.67-.57-.37-1.09-.89-1.84-.96-1.23-.1-3.75.02-4.67.71-.79.04-2.03.77-2.78,1.26l-2.17,1.41c-1.15.75-3.5,1.49-4.86,1.61l-1.11.1c-.32.03-.65.01-.96-.02l-1.37-.12c-1.11-.09-3.51-1.05-4.45-2.12-.21-.24-.57-.32-.77-.57-.16-.21-1.02-1.35-1.13-1.06,0-.04-.02-.08-.01-.12.04-.16-.01-.32-.02-.48-.06-1-.17-1.55,0-2.56.08-.02.14-.1.12-.18-.02-.05-.07-.09-.11-.11.07-.65.62-3.76,1.1-4.03.3.04-.05,2.73.24,2.73.05,1.21.73,3.33,1.72,4.15l.6.51c.97.81,2.28,1.29,3.57,1.45l.63.08c.97.12,2.78-.13,3.71-.42.76-.23,1.91-.72,2.6-1.08.4-.21,1.24-.97,1.28-1.39.69-.16,1.55-.89,2.36-1.17.36-.12.65-.32.95-.45-.09.04,1.39-.3,1.59-.33l.97-.13c.78-.1,2.12-.04,2.94.12,2.12.39,3.87,1.59,6.11,2.35,1.49.51,4.11.28,5.26-.94.2-.21.46-.37.64-.59,1.12-1.39,1.39-3.23,1.4-5.01,0-.68-.1-2.22-.27-2.81l-.5-1.72c-.08-.27-.2-.49-.23-.73-.06,0,2.13-1.18,2.32-1.11Z"/>
      <path class="cls-8" d="M74.94,51.77c-.13.28-.35-.22-.74.28-.21.27-.9-.14-.93.38-.05.74-.61.35-1.33.69-.1.05-.18.05-.24.02-.33-.15.02-.71-.15-.78l-.7-.3c-.15-.06-.5-.07-.56.08-.22.52-.7.8-1.11.68-.26-.07-.52.08-.73.07-.42-.03-.15-.52-.21-.7-.08-.27-.45-.46-.58-.72-.14-.28-.39-.17-.58-.07-.4.21-.87.12-1.26.08-.51-.08,1.65-.54,1.69-.55l.59-.11c1.93-.37,5.21,0,6.85.93Z"/>
      <path class="cls-3" d="M71.97,76.76c-.22-.02-.27.08-.33.17-.05.08-.12.11-.13.15-.32.16-.53.54-.84.59-.43.07-.77-.18-.86-.49v-.52s.14-.46.14-.46c.28-.1.44-.29.48-.51,1.05-.67,1.27-1.05,2.6-1.4.56-.15,1.55-.26,1.69.55.08.46-.16.87-.64.94-.54.08-2.09.42-2.1.98Z"/>
      <path class="cls-1" d="M78.27,53.9c.02.21.17.37.37.44.04.14.79.98,1.07,1.02-.08.09.01.18.1.22.05.02.11.01.17.02.04,0,.08.02.12.02.25.53-1.48.55-1.47.94-.45-.06-.93.36-1.38.5.07-.34-.02-.72-.26-.98.02-.09-.07-.18-.06-.26.04-.4-.14-.79-.21-1.24l-.13-.84c-.06-.36-.07-.67-.15-.96-.04-.15.06-.32,0-.47,1.34.41,1.4,1.41,1.85,1.58Z"/>
      <path class="cls-3" d="M76.07,79l-.21.37c-.11.2-.1.5-.26.7-.32.4-1.01.4-1.32,0-.52-.67.35-1.5.29-2.01.46-.7.75-1.71,1.71-1.97.39-.11.75.03.93.33.13.22.22.62-.06.9-.49.49-.76,1.12-1.08,1.68Z"/>
      <path class="cls-8" d="M56.64,66.39s-.09-.11-.09-.24v-.99c0-1.12.11-2.22.32-3.32l.14-.73c.03-.16.1-.29.12-.37.54.23-.34.9.36,1.14.3.1.55.38.38.68-.05.09-.32-.02-.38.07-.49.76.37,1.45-.06,1.69-1.03.56-.33,1.97-.78,2.09Z"/>
      <path class="cls-7" d="M70.66,77.67c.31-.05.52-.43.84-.59-.1.25.53,1.13.75,1.45l.8,1.16.78.93c-.14.2-.31.08-.46-.04l-1.03-.81c-.38-.3-1.59-1.65-1.69-2.1Z"/>
      <path class="cls-8" d="M65.99,66c-.4.15-.8-.1-1.25-.12-.15,0-.14-.37,0-.42.56-.17,1.25.07,1.4-.25.06-.13-.52-.63-.19-.99.09-.1.35-.02.45-.14.42-.54.53.31,1.67-.17.02.2.09.43-.01.58-.31.46-1.02.19-1.43.33.04.45-.16.99-.62,1.17Z"/>
      <path class="cls-8" d="M76.43,52.79c.08.3.09.6.15.96l.13.84c.07.45.25.83.21,1.24-.61.12-.64-.75-1.26-1.08-1.01-.54.86-.73-.38-1.48.15-.57.66-.24,1.14-.48Z"/>
      <path class="cls-8" d="M71.07,64.85c-.52.19-.33-.61-.83-.36-.09.04-.17.06-.24.04-.15-.03-.18-.41-.35-.41s-1.16-.06-1.12-.05c-.91-.3.63-.22.9-.42.23-.17-.03-.59.33-.7.53-.17.3.73.65.69.18-.03.4-.15.53.04.23.32.35.69.44,1.07l-.3.11Z"/>
      <path class="cls-8" d="M57.51,70.78c-.18-.16-.18-.43-.25-.7l-.39-1.61c-.14-.56-.2-1.09-.2-1.61.57-.13-.14.68.89,1.44.44.32.38,1.41.24,1.53-.59.49.1.49-.29.95Z"/>
      <path class="cls-8" d="M70.66,60.25c-.64-.07.12.64-.35.74-.29.06-.42-.07-.54-.25s.1-.3.12-.53l.04-.66c.05-.87-.21-.16-.11-.71.04-.23.52.12.59-.3.03-.21.16-.28.38-.26.12.01.18.04.21.08.06.11.04.21-.06.32l-.56.59c.24.33.78.34.65.79-.03.1-.18.21-.36.19Z"/>
      <path class="cls-8" d="M65.85,67.05c.15.63-.62.33-.65,1.41,0,.13-.07.22-.13.25-.36.19-.36-1.11-.42-1.19-.19-.28-.53.06-.68-.12-.09-.11-.04-.21.08-.3.33-.23-.18-.77.02-.88l.48-.26c.16.33.08.6-.02.93-.09.28.24.39.48.38.13,0,.21,0,.3-.03.1-.04.04-.21.12-.36.1-.18.38.02.42.19Z"/>
      <path class="cls-8" d="M59.73,75.36c-.22-.07-.27-.3-.39-.51-.38-.68-.77-1.31-1.06-1.99.52.1.74-.24,1.04-.11.02,0,.27.81-.01,1.25.2.35.5.95.42,1.35Z"/>
      <path class="cls-2" d="M77.01,57.33c-.11.22-.31.36-.55.5-.38.23-.66.57-.99.87-.3.27-.68.46-.92.79-.09.12-.87,1.09-.95.89-.09-.31.55-.5.62-.99.07,0,.15-.06.22-.13l.86-.86c-.17.17,1.65-1.31,1.7-1.07Z"/>
      <path class="cls-2" d="M73.32,60.87c-.07.38-.57.88-.57,1.72l-.02,2.69c0,.1-.04.19-.12.15-.29,0,.05-2.69-.24-2.73-.04-.54.22-.62.23-.98.2-.08.5-.91.72-.85Z"/>
      <path class="cls-8" d="M62.08,71.17c-.26-.09-.21-.48-.31-.66-.17-.1-.38,0-.55-.13-.12-.09.1-.31.25-.31.66,0,.34-.41.91-.4.16,0,.28.08.41.27.31.46-.42.29-.34.74.03.2-.12.57-.36.48Z"/>
      <path class="cls-8" d="M74.22,59.39c-.07.49-.71.68-.62.99,0,.03-.01.06-.01.09-.1-.07-.19,0-.23.1-.02.06-.02.12-.02.18,0,.04-.02.08-.02.12-.22-.06-.52.77-.72.85-.08.03-.09-.02-.07-.11.12-.6-.29-.45.25-.92.16-.14.03-.43.09-.63.81.03.69-.71,1.35-.68Z"/>
      <path class="cls-8" d="M71.14,66.75c-.13.03-.3-.08-.47.01-.12.07-.11.23-.15.35-.05.16-.18.11-.3.11-.38-.01.08-.58-.11-.77-.2-.2-.42-.34-.43-.68.25.04.53-.09.72,0,.34.25.5.68.73.98Z"/>
      <path class="cls-8" d="M71.57,60.83c.44-1.17-1.2,2.53-.66.91.08-.26-.08-.47-.07-.67.01-.37.37-.64.52-.98.07-.16.15-.43.41-.31.09.04.14.24.34.36-.38.16-.43.39-.54.69Z"/>
      <path class="cls-8" d="M67.1,81.71c-.08-.02-.18.02-.26,0-.75-.23-1.37-.83-1.67-.86.08-.09-.03-.18-.1-.23-.05-.03-.13,0-.18-.01-.1-.04-.2-.12-.32-.12-.03-.12-.12-.2-.17-.31.19-.06.35.01.55.13l.72.41c.38.22.72.46,1.14.58.23.07.3.23.3.42Z"/>
      <path class="cls-8" d="M77.24,57.06s0,.08,0,.12c-.12-.01-.16.1-.23.14-.05-.24-1.87,1.23-1.7,1.07-.02-.44.44-.57,1.05-1.17l.54-.54c.16-.15.02-.45.09-.6.23.26.33.64.26.98Z"/>
      <path class="cls-2" d="M76.19,84.91c.3.25-2.23-.42-2.3-.44l-.95-.26c-.14-.04-.3-.15-.23-.26.17-.05.31.05.5.11l2.74.7c.12.03.25.06.24.16Z"/>
      <path class="cls-2" d="M78.66,85.54c-.1.65-.49.92-.72,1.78-.04.15-.19.21-.27.26.04-.21.07-.4.18-.65l.53-1.18c.12-.26-.59-.38-.39-.46.24.03.51.05.67.25Z"/>
      <path class="cls-2" d="M71.9,83.78c-.22.02-2.57-.64-2.25-.84.3.03,1.36.44,2.11.6.12.03.2.14.14.23Z"/>
      <path class="cls-8" d="M62.82,78.9c-.31-.24-.66-.43-.92-.83-.12-.19-.4-.28-.42-.5.16.06.33-.02.5.19.2.24.84.91.84,1.14Z"/>
      <path class="cls-7" d="M70.42,75.69c-.05.22-.2.41-.48.51-.15-.3-.26-.63-.26-.96.34.09.46.31.74.45Z"/>
      <path class="cls-8" d="M71.25,69.58c0,.16.06.32.02.48-.22.13-.62.2-.75-.11-.16-.38.55-.34.72-.38Z"/>
      <path class="cls-8" d="M65.21,61.01c.25,0,.35.14.29.35-.05.16-.31.16-.42.15-.1,0-.29-.09-.29-.28,0-.16.21-.23.42-.22Z"/>
      <path class="cls-8" d="M68.04,65.36c.17.12-.21.35-.45.31-.18-.03-.33-.03-.22-.28.06-.13.42-.19.67-.03Z"/>
      <path class="cls-8" d="M62.89,62.6c-.08-.17-.01-.36.15-.42.17-.06.24.08.3.18.07.11.03.2-.05.27-.12.11-.32.16-.41-.03Z"/>
      <path class="cls-8" d="M70.1,69c.05.21,0,.32-.05.38-.05.07-.25.21-.34.03-.05-.09.1-.31.12-.47.03-.18.22-.16.28.06Z"/>
      <path class="cls-2" d="M68.47,82.55c-.22.03-.97-.33-.78-.46.19-.04.97.32.78.46Z"/>
      <path class="cls-8" d="M59.38,66.27c.01.21-.22.2-.32.2-.11,0-.33-.17-.23-.36.12-.22.53-.09.55.16Z"/>
      <path class="cls-8" d="M66.36,54.88c-.11,0-.18-.02-.23-.09-.1-.14.27-.37.3-.37.15-.02.2.12.22.26.01.12-.09.19-.28.21Z"/>
      <path class="cls-8" d="M70.35,56.95c.15.01.18.1.16.17-.02.08-.07.18-.17.21-.09.03-.14-.08-.25-.18-.13-.19-.01-.22.26-.19Z"/>
      <path class="cls-8" d="M68.53,62.69c-.22,0-.29-.05-.34-.13-.04-.07,0-.14.08-.24.12-.14.24-.12.33-.05.13.1.19.3-.08.43Z"/>
      <path class="cls-2" d="M67.1,81.71c0,.09.12.1.23.13.13.03.23.14.15.24-.27.03-.78-.14-.65-.37.08.02.18-.02.26,0Z"/>
      <path class="cls-7" d="M69.78,76.66v.52c-.2.03-.25-.07-.24-.26,0-.11,0-.2.07-.24.04-.02.11-.03.17-.02Z"/>
      <path class="cls-2" d="M64.39,80.17c.05.11.14.19.17.31-.21,0-.38-.15-.4-.36.07.03.15.07.23.05Z"/>
      <path class="cls-8" d="M63.32,64.55c.01.33-.3.33-.28,0,0-.18.27-.18.28,0Z"/>
      <path class="cls-2" d="M77.3,85.24c-.1,0-.23.07-.36,0-.09-.05-.11-.14-.06-.19.1-.01.23-.06.36.01.09.05.12.14.06.19Z"/>
      <path class="cls-8" d="M75.09,57.42c.02.33-.26.37-.28.06,0-.19.18-.26.28-.06Z"/>
      <path class="cls-8" d="M57.4,59.89c.06-.12.01-.38.22-.39.01.06.05.14.04.26-.02.16-.17.18-.26.13Z"/>
      <path class="cls-8" d="M64.89,51.78c.03.06.03.12,0,.19-.03.06-.08.09-.18.06-.05-.01-.11-.07-.08-.15.06-.06.19-.08.27-.1Z"/>
      <path class="cls-2" d="M76.68,85.04c-.01.09-.13.14-.19.1-.09-.05-.16-.15-.09-.22.06,0,.11-.03.2,0,.05.01.12.04.09.12Z"/>
      <circle class="cls-8" cx="71.88" cy="57.68" r=".14"/>
      <path class="cls-8" d="M68.35,70.93c0,.13-.18.1-.27.11,0-.06-.01-.13,0-.18.03-.06.09-.09.16-.06.04.02.08.07.1.13Z"/>
      <path class="cls-5" d="M71.25,67.01c-.16.02-.06-.2-.11-.26l.12-.02s.1.06.11.11c.03.08-.04.16-.12.18Z"/>
      <path class="cls-7" d="M73.25,77.64c-.08,0-.19.06-.27-.04-.04-.05-.08-.11-.02-.17.05,0,.13-.03.19,0,.08.03.18.12.1.22Z"/>
      <path class="cls-8" d="M60.95,55.42c.13-.15.23-.08.27-.01s0,.15-.06.18c-.07.04-.19.03-.2-.17Z"/>
      <path class="cls-2" d="M69.33,82.91c-.06,0-.12.04-.2.01-.08-.03-.17-.13-.1-.22.08,0,.19-.05.27.05.05.05.09.1.02.16Z"/>
      <circle class="cls-8" cx="70.9" cy="55.22" r=".14"/>
      <path class="cls-7" d="M71.97,76.76l.04.16h-.37c.06-.08.11-.18.33-.16Z"/>
      <path class="cls-3" d="M95.06,73.99c-.08.89.49,1.83,1.47,1.96,1.08.15,2.07-.26,2.71-.02-.2.2-.42.26-.66.34-.38.13-2.31.89-2.49,1.08-.43.46-.11,2.06-1.95,3.43-1.13.84-2.46,1.05-3.84.88-2.77-.35-4.27-2.84-5.1-5.27-.09-.55-.28-2.03.4-2.26.74-.26,1.47.83,2.51,1.28,1.21.52,2.89,1.14,4.17.72.94-.3,1.39-1.24,1.32-2.15.48-.02.98-.03,1.46,0ZM92.69,79.9c.88-1.75-1.73-2.95-3.16-3.18-.17-.03-2.42-.19-2.46.21.25.76.55,1.45,1.05,2.04,1.43,1.68,4.04,2,4.57.93Z"/>
      <path class="cls-10" d="M97.4,69.93c.41,1.36.58,2.25-.79,3.25-.47.34-1.32.53-1.55.81-.48-.04-.99-.02-1.46,0-.05-.03-.13-.13-.25-.11-.39.06-.69-.12-1.03-.2-1.31-.29-2.62-1.46-2.02-2.86.38-.88.46-.63.59-1.12.92-.7,3.44-.82,4.67-.71.76.06,1.28.59,1.84.96Z"/>
      <path class="cls-9" d="M113.54,70.56c-.05.11-.1.19-.19.3-.22.07-.36.01-.46-.23.16-.2.33-.26.56-.36.13.07.11.16.08.29Z"/>
      <path class="cls-11" d="M107.94,57.33c.03.23.15.46.23.73l.5,1.72c.17.59.28,2.12.27,2.81,0,1.77-.28,3.61-1.4,5.01-.18.22-.44.37-.64.59-1.15,1.22-3.77,1.44-5.26.94-2.24-.76-3.99-1.96-6.11-2.35-.82-.15-2.15-.22-2.94-.12l-.97.13c-.2.03-1.67.36-1.59.33.02-.16-.06-.31-.14-.49l-1.17-2.39-1.75-3.71c.12.04.14-.14.11-.2-.06-.09-.17-.12-.24-.07l-.02-.21c0-.07.04-.15.03-.28-.02-.16-.17-.17-.25-.12-.05-.12-.11-.23-.13-.36h.51s0,.08.02.11c.17.42.5,1.16.97,1.22h.1c-.06.09-.02.21.07.26.08.04.19-.03.21-.12h.31c.02.09.14.16.21.12.09-.06.16-.17.08-.25.06,0,.13-.02.19-.02.1,0,.26,0,.37-.06.08-.04.13-.14.14-.26.04,0,.08-.03.13-.03.08,0,.11-.05.13-.12.03-.09.13-.14.22-.13.06,0,.13.03.2,0,.09-.03.12-.15.08-.24l.26-.13c.23.03.39-.11.45-.34.07-.14.22-.18.37-.17.26.01.48-.23.52-.47.14,0,1.32.02,1.35.14,0,.14.08.26.21.39l1.62,1.56.8.67c.5.42,1.03.93,1.61.5.36-.23,1.42-1.57,1.63-1.43-.61,1.53-.82,2.26-.68,4.02.25,1.36.57,2.63,2,3.15.58.16,1.2.13,1.8,0,1.13-.47,1.79-1.78,1.81-2.97.15-.45.13-.91-.02-1.36.05-1.69-1.41-4.07-3.31-3.66l-1.1.24c-.03-.44.61-.55.6-.98-.04-.17.81-.1,1.02-.1-.02.18.13.27.31.36.38.18.68.45,1.05.66.82.46,2.23,1.62,2.8.69l1.44-2.34c.13-.2.22-.4.24-.6.04-.16.18-.28.4-.27l.36.02Z"/>
      <path class="cls-8" d="M100.31,58.91c.01.43-.62.55-.6.98-.23.12-.39.34-.5.58-.21-.14-1.27,1.2-1.63,1.43-.59.43-1.11-.08-1.61-.5l-.8-.67-1.62-1.56c-.13-.12-.21-.24-.21-.39.4-.02.88.08,1.34.09l1.72.06c1.17.04.96.14,2.33,0,.54-.06,1.09,0,1.58-.03Z"/>
      <path class="cls-8" d="M107.17,57.58c-.02.19-.12.39-.24.6l-1.44,2.34c-.57.93-1.98-.23-2.8-.69-.37-.21-.67-.47-1.05-.66-.18-.09-.33-.18-.31-.36.07,0,.14-.03.2-.04.08,0,.29.05.27-.09.31.03.62-.06.97-.13l1.73-.37c1.13-.24,1.84-.59,2.67-.6Z"/>
      <path class="cls-8" d="M88.77,57.95c-.09.1.03.18.11.21.07.02.14-.01.19-.01.15,0,.3.02.44.03,0,.14.19.1.29.1.1,0,.21.01.31.02.02.15.2.1.3.1.53,0,.94.17,1.1.14.05.07.14.1.19.2-.15.13-.24.24-.24.38-.15,0-.3.03-.37.17-.2.02-.38.15-.45.34l-.26.13c-.07.04-.18-.02-.25.07-.04.05-.09.1-.02.16-.09,0-.19.04-.22.13-.08-.02-.18.01-.13.12-.04,0-.08.03-.13.03-.13.02-.66.19-.51.32-.06,0-.13.02-.19.02-.1,0-.29-.01-.29.13h-.31c0-.14-.19-.11-.28-.13h-.1c.26.14-1.09-1.57-.97-1.24-.01-.03-.02-.07-.02-.1,0-.19-.93-1.36-1.1-1.73-.03-.07.05-.16.1-.14.66.03,2.28.59,2.81.53Z"/>
      <path class="cls-14" d="M83.02,56.53c-.12-.03-.25.07-.37.07l-2.42-.03h-.88c-.12,0-.19.16-.13.24-.17,0-.4,0-.56-.02.03-.08,0-.16-.03-.22,0-.39,1.73-.41,1.47-.94-.21-.04,1.37-.01,1.91.28l.89.47c.09.05.14.1.12.16Z"/>
      <path class="cls-2" d="M83.02,56.53c.27.06.55.02.87.05.19.02.31.2.49.23.23.04.48-.03.68.09.9.53.82.19.9.51-.05-.03-.13.07-.1.14.17.37,1.11,1.54,1.1,1.73h-.51c-.44-.39-.69-1.55-1.2-1.98-.4-.34-1.09-.48-1.59-.48h-.88c-.14,0-.21-.14-.15-.22.12,0,.25-.1.37-.07Z"/>
      <path class="cls-2" d="M92,58.65c-.05.24-.27.48-.52.47,0-.14.09-.25.24-.38-.05-.1-.14-.14-.19-.2.09-.01.18-.07.27-.06.11,0,.18.08.21.17Z"/>
      <path class="cls-14" d="M78.64,54.34c-.19-.06-.35-.23-.37-.44.24.09.3.17.37.44Z"/>
      <path class="cls-14" d="M79.98,55.6c-.06,0-.12,0-.17-.02-.08-.04-.18-.13-.1-.22.08.01.21-.06.27.05.03.06.04.13,0,.19Z"/>
      <path class="cls-2" d="M89.07,58.15c-.06,0-.12.03-.19.01-.08-.03-.2-.11-.11-.21.09-.01.19-.06.28.03.04.05.09.1.02.17Z"/>
      <path class="cls-2" d="M89.8,58.27c-.1,0-.28.04-.29-.1.02-.08.12-.17.2-.13s.15.15.09.23Z"/>
      <path class="cls-2" d="M90.42,58.39c-.1,0-.29.05-.3-.1.03-.08.13-.16.21-.12s.16.15.09.22Z"/>
      <path class="cls-11" d="M101.81,58.69c.01.14-.19.08-.27.09-.04-.06-.02-.11.02-.18.03-.06.09-.09.17-.05.04.02.07.08.08.14Z"/>
      <path class="cls-11" d="M44.41,113c-.1.02-.27,0-.27-.13,0-.08.14-.21.23-.11.07.07.03.19.04.24Z"/>
      <path class="cls-2" d="M65.16,80.85c-.06,0-.13.02-.2,0-.08-.04-.15-.15-.09-.24.05.02.13-.02.18.01.08.05.18.14.1.23Z"/>
      <path class="cls-11" d="M79.22,56.8l.86.04c.12.71.48,1.35.73,2.07l.74,2.14c-.74.14-1.33.74-1.67,1.43-.56,1.11-.4,1.57-.64,2.67.14.33.1.64.15.98.13.84.5,1.97,1.13,2.51,1.54,1.3,3.26.42,4.35-.9.15-.18.24-.35.29-.61.38,0,1.35,1.27,1.57,1.59-.04.42-.89,1.18-1.28,1.39-.69.36-1.85.85-2.6,1.08-.93.28-2.74.54-3.71.42l-.63-.08c-1.28-.16-2.6-.64-3.57-1.45l-.6-.51c-.99-.82-1.67-2.94-1.72-4.15.07.04.12-.05.12-.15l.02-2.69c0-.84.5-1.33.57-1.72,0-.04.02-.08.02-.12.09.06.21,0,.25-.08.03-.06,0-.14,0-.2,0-.03.02-.07.01-.09.08.2.86-.77.95-.89.24-.34.61-.52.92-.79.33-.3.6-.64.99-.87.24-.14.44-.28.55-.5.07-.04.11-.16.23-.14.04,0,1.46-.33,1.42-.4.16.03.39.01.56.02Z"/>
      <path class="cls-12" d="M82.65,56.6c-.06.08,0,.22.15.22h.88c.5,0,1.19.14,1.59.48.51.43.76,1.59,1.2,1.97.02.13.08.24.13.36.04.08-.04.22.04.34.06.09.13.13.19.06l.02.21c.01.11.02.23.14.27l1.75,3.71,1.17,2.39c.09.18.16.33.14.49-.3.13-.59.33-.95.45-.81.28-1.67,1.01-2.36,1.17-.22-.32-1.19-1.58-1.57-1.59.03-.8.13-1.13.04-2.08l-.07-.76c-.17-1.8-1.61-3.6-3.58-3.24l-.74-2.14c-.25-.72-.6-1.37-.73-2.07l.15-.27,2.42.03Z"/>
      <path class="cls-2" d="M78.63,56.56c.04.07.06.15.03.22.03.07-1.38.4-1.42.4,0-.04,0-.08,0-.12.45-.14.93-.56,1.38-.5Z"/>
      <path class="cls-2" d="M73.59,60.47c0,.06.03.14,0,.2-.04.09-.16.14-.25.08,0-.06,0-.12.02-.18.04-.09.13-.16.23-.1Z"/>
      <path class="cls-10" d="M92.69,79.9c-.54,1.07-3.14.75-4.57-.93-.5-.59-.8-1.29-1.05-2.04.04-.39,2.29-.23,2.46-.21,1.44.23,4.05,1.43,3.16,3.18Z"/>
      <path class="cls-13" d="M99.22,60.47c.11-.23.27-.46.5-.58l1.1-.24c1.89-.41,3.36,1.97,3.31,3.66.14.46.17.91.02,1.36-.01,1.19-.68,2.49-1.81,2.97-.6.13-1.22.16-1.8,0-1.43-.53-1.75-1.79-2-3.15-.14-1.77.07-2.5.68-4.02Z"/>
      <path class="cls-2" d="M87.95,60.61c-.46-.06-.8-.81-.97-1.22-.12-.33,1.23,1.37.97,1.22Z"/>
      <path class="cls-2" d="M89.65,60.27c-.01.12-.06.22-.14.26-.11.06-.28.07-.37.06-.15-.13.38-.31.51-.32Z"/>
      <path class="cls-2" d="M91.11,59.29c-.05.22-.21.36-.45.34.07-.19.25-.31.45-.34Z"/>
      <path class="cls-2" d="M86.82,60.03c-.06.07-.13.03-.19-.06-.08-.12,0-.26-.04-.34.09-.05.24-.03.25.12.01.13-.03.21-.03.28Z"/>
      <path class="cls-2" d="M90.4,59.76c.04.09.02.21-.08.24-.07.02-.14,0-.2,0-.06-.07-.02-.11.02-.16.07-.09.18-.03.25-.07Z"/>
      <path class="cls-2" d="M86.98,60.51c-.12-.04-.13-.16-.14-.27.08-.05.19-.02.24.07.04.06.01.24-.11.2Z"/>
      <path class="cls-2" d="M88.95,60.62c.07.08,0,.19-.08.25-.07.04-.19-.03-.21-.12,0-.14.19-.12.29-.13Z"/>
      <path class="cls-2" d="M88.34,60.74c-.02.09-.13.16-.21.12-.09-.05-.13-.17-.07-.24.09.01.29-.01.28.12Z"/>
      <path class="cls-2" d="M89.77,60.24c-.05-.11.05-.14.13-.12-.02.06-.06.12-.13.12Z"/>
      <path class="cls-2" d="M80.23,56.57l-.15.27-.86-.04c-.06-.08,0-.23.13-.23h.88Z"/>
      <path class="cls-13" d="M85.16,67.13c-.05.26-.15.43-.29.61-1.09,1.33-2.82,2.21-4.35.9-.63-.54-1-1.67-1.13-2.51-.05-.34-.01-.65-.15-.98.24-1.1.08-1.56.64-2.67.34-.69.93-1.29,1.67-1.43,1.97-.36,3.41,1.44,3.58,3.24l.07.76c.09.95,0,1.28-.04,2.08Z"/>
    </g>
  </g>
  <polygon class="cls-13" points="78.34 34.67 78.34 26.14 76.28 24.95 74.21 26.14 74.21 34.67 76.28 35.86 78.34 34.67"/>
  <path class="cls-13" d="M97.78,28.96c.75,0,1.35.01,1.98.03v-2.84l-2.07-1.19-2.07,1.19v2.91c.6-.06,1.35-.09,2.16-.09Z"/>
  <path class="cls-11" d="M78.99,123c.15-.37.32-.73.52-1.07.09-.15.2-.28.29-.42-.01,0-.02,0-.03-.01h-.01s.05-.13.17-.26c-.11-1.52-.57-4.17-1.24-5.71-.04-.1-.09-.2-.14-.3l-.57-1.12c-.1-.2-1.19-1.8-1.41-2.02-.19-.2-.31-.42-.5-.61l-.72-.76c-.79-.82-1.63-1.54-2.51-2.26-.37-.3-.78-.49-.99-.96.88,0,1.19.62,1.87.57.04-.65.04-1.31,0-1.99-.03-.56-.08-1.48-.05-2.04l.1-2.23.14-1.2.42-2.47c.02-.1-.01-.18.06-.25.03-.04.08-.1.15-.03-.03-.07.01-.17.02-.25.17-1.84.77-3.65,1.37-5.47.1-.29.18-.55.35-.72l.14-.61c-.25-.03.06-.64.07-.64.04-.03.11-.04.17-.01l.41-1.06c.09-.23.24-.41.23-.63-.05-.06-.13-.14-.26-.17l-1.22-.37-1.64-.44c-.35-.09-.66-.22-1.01-.32l-1.32-.4-2.28-.67c-1.83-.53-1.04-.38-2.64-1.07-.41-.17-.77-.44-1.18-.63-.62-.28-1.26-.53-1.85-.88l-.92-.53c-.13-.07-.19-.19-.31-.22-.31-.07-.18.77-.83.6l-.58-.15c-.51-.13-.91-.52-1.43-.65-.31-.08-.67.01-.84-.28-1.14.3-1.71-.16-2.7.14l-1.11.35c-.66.2-1.22.41-1.68.89-.71.74-.86,1.27-1.04,2.29-.22,1.22.34,3.33,1.22,4.27l.77.81.86.72c.12.1.28.14.38.22.68.54,1,.41,1.88,1.2.49.43,1.35.92,1.4,1.28.08.63-.18,1.24-.3,1.85l-.12.61c-.08.39-.1.76-.22,1.14l-.21.68c.11-.33-.19,1.96-.1,1.84-.15.19-.08.46-.14.73-.05.25-.36.31-.47.49-.15.21-.32.33-.51.49l-.79.67-.69.55c-.34.28-2.16,1.62-2.48,1.37-.03.36-.68.46-.79.5-.09.03-.21.13-.33.2-.96.58-.87.38-1.49.59l-.62.21c-.53.18-2.14.58-2.59.46-.14.31-.59.27-.88.26-.6.38-1.57.32-2.42.86-.94.6-1.38.98-1.67,2.1-.18.68.02,1.41.34,2,.1.16.21.15.31.19.04-.52-.84-1.32-.02-.86l1.18.67.52.32,1.38.72c.89.46,2.6,1.05,3.56,1.24l1.02.2.97.13.87.11c1.05.13,3.74.07,4.75-.32.71-.28.98-.96.82-1.67-.23-.99-.4-2.02-.53-3.03l-.13-1.09c-.08-.66-.15-5.14.35-5.58.35-.07.2,1.46.28,2.13l.1.88.14,1.08.14.92c.06.42.15.84.25,1.25l.2.78c.56,2.24.84,2.59,1.49,4.62.19.61.21,1.21.23,1.79,0,.1.16.12.24.2.13.14.05.34.09.51l.45,1.87c.07.31.13.59.23.89l.25.73c.03.1.08.23.12.36.21.61.47,1.38.64,1.82l.45,1.14s0,0,0,.01c.34.87.59,1.77.71,2.7.41,3.15,3.11,5.59,6.37,5.59h.34c1.77,0,3.33-.78,4.54-1.88,2.15-1.96,4.19-7.49,4.19-7.49ZM61.52,96.98c-.79.37-1.7-.13-2.54-.09-.12,0-.14-.33-.1-.45.17-.41.18-.8.26-1.23.07-.36.24-.67.09-1.08.59.06,1.79.73,1.94.85l1.1.4c.28.1.5.35.8.43l.75.21c.15.04,1.2.18.94.61-1.65.29-2.22-.58-3.24.35Z"/>
  <path class="cls-11" d="M115.73,87.21c-.12.23-1.57,2.75-1.78,2.48,0-.11.04-.23.14-.35.41-.49.66-1.05,1.02-1.57.16-.21.83-1.05.35-1.21-.29.14-.44.46-.65.67l-1.04,1.05c-.09.1-.2.18-.3.26l-2.43,1.78-1.06.66c-.15.09-.51.14-.59-.05l-.79-1.83-.65-1.18-.68-.99c-.36-.55-.93-1.48-1.44-1.96-.16-.15-.29.04-.12.18.4.99.64,1.43,1,2.43l.4,1.08.32,1.05c.48,1.53.93,3,1.24,4.63.27-.19.46-.34.73-.48.88-.46.63-.66,1.37-.85-.13.54-1.93,1.16-1.93,1.68.01.43.18.85.24,1.29l.2,1.3c.21,1.37.39,3.92.29,5.27l-.08,1.11c-.11,1.54-.43,3.01-.94,4.45-.17.5-.2.92-.06,1.45,0,0-.21,7.74-2.73,13.35-.76,1.69-1.55,3.36-2.15,5.11-.32.94-.85,1.78-1.54,2.47-1.16,1.16-2.77,1.88-4.54,1.88h-.33c-3.55,0-6.43-2.88-6.43-6.43.18-1.69-.51-3.77-.51-3.77.14-.04.19.02.22.11.03.07.04.15.07.21.03.05.08.08.18.04.22-.09,1.7-.4,2.3-.57l.77-.22.85-.34c.45-.19.9-.31,1.35-.49.7-.28,1.38-.55,2.05-.9l1.46-.76,1.3-.78c.29-.18.55-.41.83-.6.39-.28.83-.45,1.18-.79.17-.17.31-.35.53-.46.1-.04,1.15-1.06,1.24-1.17l.54-.6c.25-.27.48-.5.7-.79.25-.32.46-.68.73-.98.41-.45,2.02-3.17,1.71-3.91.02-.13-.09-.15-.11,0-.25.13-.3.36-.43.56-.47.73-1.13,1.55-1.68,2.24l-.55.67s-1.26,1.35-1.36,1.45c-.67.68-1.31.87-1.25.83-.07-.19.39-.67.68-1.03.94-1.18,1.95-3.17,2.49-4.6.52-1.37.95-3.31,1.12-4.78.13-1.18.26-4.28.1-5.25l-.11-.75c-.05-.28-.09-.55-.13-.84l-.09-.64c-.34-2.38-1.59-6.42-2.52-8.61l-.85-1.98c-.37-.87-.5-.98-.83-1.75v-.05c.35-.25,1.6-1.06,1.99-1.23.13-.05.11-.25.11-.33.35-.03.72-.15,1.09-.3,1.04-.39,3.61-1.18,4.59-1.25l1.31-.09c.44-.03.81-.12,1.25-.01.66.17,1.42.6,1.8,1.16.58.83,1.19,1.17,1.29,2.47.07.83-.06,1.42-.46,2.15Z"/>
</svg>