<?xml version="1.0" encoding="UTF-8"?>
<svg id="Calque_1" data-name="Calque 1" xmlns="http://www.w3.org/2000/svg" viewBox="0 0 150 150">
  <defs>
    <style>
      .cls-1 {
        fill: #5a7d80;
      }

      .cls-2 {
        fill: #bbe3f8;
      }

      .cls-3 {
        fill: #42a9e0;
      }

      .cls-4 {
        fill: #8fc14d;
      }

      .cls-5 {
        fill: #85d0f5;
      }

      .cls-6 {
        fill: #a0b0b3;
      }

      .cls-7 {
        fill: #75a6c2;
        opacity: .5;
      }

      .cls-8 {
        fill: #2e5159;
      }

      .cls-9 {
        fill: #efda1c;
      }

      .cls-10 {
        fill: #b5d27a;
      }

      .cls-11 {
        fill: #f6b2b0;
      }

      .cls-12 {
        fill: #369649;
      }
    </style>
  </defs>
  <path class="cls-8" d="M37.38,47.11c4.18-11.86,14.71-20.59,20.92-23.45,5.19-2.39,11-3.86,16.78-3.54,17.33.97,30.53,17.09,32.63,30.93-.72-.49-1.46-.96-2.21-1.43-1.14-.71-2.38-1.48-3.95-1.73-1.29-.21-2.55-.06-3.79.17-1.72.32-3.42.7-5.14,1.02-1.28.24-2.17.26-3.32-.27-1.19-.55-2.16-1.35-3.62-1.59-1.52-.26-3.21-.03-4.71.09-.6.04-1.13.1-1.7.06-.43-.03-.61-.07-1-.26-.39-.19-.73-.41-1.05-.66-.97-.74-2.57-.97-3.85-.53l-2.69.93c-.61.21-1.32.28-2.01.19l-10.35-1.33c-.66-.08-1.33-.05-1.95.1l-6.23,1.55c-.39.1-.8.14-1.22.13l-11.53-.35Z"/>
  <g>
    <path class="cls-8" d="M118.03,77.6h0c-1.05-2.65-4.03-3.94-6.66-2.88l-16.05,6.46c-2.63,1.06-3.91,4.06-2.86,6.71h0c1.05,2.65,4.03,3.94,6.66,2.88l16.05-6.46c2.63-1.06,3.91-4.06,2.86-6.71Z"/>
    <g>
      <path class="cls-8" d="M53.39,132.02h6.04c1.06,0,1.96-1.11,2.09-2.6l.74-8.01h-11.7s.74,8.01.74,8.01c.14,1.49,1.03,2.6,2.09,2.6"/>
      <path class="cls-8" d="M86.23,132.02h6.04c1.06,0,1.96-1.11,2.09-2.6l.74-8.01h-11.7s.74,8.01.74,8.01c.14,1.49,1.03,2.6,2.09,2.6"/>
      <path class="cls-1" d="M46.35,121.41h26.54c2.12,0,3.84-1.73,3.84-3.87v-9.16c0-2.14-1.72-6.13-3.84-6.13h-30.93s.55,15.3.55,15.3c0,2.14,1.72,3.87,3.84,3.87Z"/>
      <path class="cls-6" d="M64.97,121.41h34.05c2.02,0,3.66-1.65,3.66-3.69l.56-15.47h-39.55s0,17.87,0,17.87c0,.71.57,1.29,1.28,1.29Z"/>
      <path class="cls-8" d="M77.16,105h-5.27c-1.08,0-1.96.88-1.96,1.98v9.7c0,1.09.88,1.98,1.96,1.98h5.27c1.08,0,1.96-.88,1.96-1.98v-9.7c0-1.09-.88-1.98-1.96-1.98"/>
      <path class="cls-10" d="M76.87,109.95h0c.47,0,.85-.38.85-.85s-.38-.85-.85-.85-.85.38-.85.85.38.85.85.85"/>
      <path class="cls-11" d="M72.85,109.95h0c.47,0,.85-.38.85-.85s-.38-.85-.85-.85-.85.38-.85.85.38.85.85.85"/>
      <path class="cls-9" d="M103.24,102.14s0,0,0,0c0,0,0,0,0,0Z"/>
      <g>
        <path class="cls-7" d="M44.79,42.4c.08-2.9,2.09-5.2,4.52-5.2h2.52s17.81,0,17.81,0h24.07s.08,0,.08,0h2.43c2.43,0,4.42,2.3,4.5,5.2l2.39,59.64c0,.07,0,.13,0,.2h-2.51s-36.91,0-36.91,0h-19.21s-2.52,0-2.52,0c0-.07,0-.13,0-.2l2.83-59.64Z"/>
        <path class="cls-4" d="M44.48,102.04l2.83-59.64c.08-2.9,2.09-5.2,4.52-5.2h17.81c-2.44,0-4.44,2.3-4.52,5.2l-1.43,59.64c0,.07,0,.13,0,.2h-19.21c0-.07,0-.13,0-.2Z"/>
        <path class="cls-12" d="M41.96,102.04l2.83-59.64c.08-2.9,2.09-5.2,4.52-5.2h2.52c-2.44,0-4.44,2.3-4.52,5.2l-2.83,59.64c0,.07,0,.13,0,.2h-2.52c0-.07,0-.13,0-.2Z"/>
        <path class="cls-10" d="M63.69,102.04l1.43-59.64c.08-2.9,2.09-5.2,4.52-5.2h24.07s.08,0,.08,0h2.43c2.43,0,4.42,2.3,4.5,5.2l2.39,59.64c0,.07,0,.13,0,.2h-2.51,0s-36.91,0-36.91,0c0-.07,0-.13,0-.2Z"/>
      </g>
      <g>
        <path class="cls-8" d="M70.92,60.45v17.45c0,.33.28.59.61.56.98-.09,2.05-.13,3.18-.13s2.2.05,3.18.13c.33.03.61-.23.61-.56v-12.84c-.31.14-.65.22-1.01.22-1.33,0-2.41-1.09-2.41-2.43s1.08-2.43,2.41-2.43c.36,0,.71.08,1.01.22v-.28c0-2.16-1.77-3.9-3.93-3.82-2.06.07-3.66,1.84-3.66,3.91Z"/>
        <path class="cls-8" d="M88.3,60.45v17.45c0,.33.28.59.61.56.98-.09,2.05-.13,3.18-.13s2.2.05,3.18.13c.33.03.61-.23.61-.56v-12.84c-.31.14-.65.22-1.01.22-1.33,0-2.41-1.09-2.41-2.43s1.08-2.43,2.41-2.43c.36,0,.71.08,1.01.22v-.28c0-2.16-1.77-3.9-3.93-3.82-2.06.07-3.66,1.84-3.66,3.91Z"/>
      </g>
    </g>
    <path class="cls-8" d="M32.11,72.3h0c-1.2,2.43-.21,5.37,2.2,6.58l15.94,7.97c2.41,1.2,5.33.21,6.53-2.21h0c1.2-2.43.21-5.37-2.2-6.58l-15.94-7.97c-2.41-1.2-5.33-.21-6.53,2.21Z"/>
  </g>
  <g>
    <path class="cls-2" d="M102.88,42.67c-1.03-1.15-4.2-3.04-5.62-2.74-1.68.35-3.07.92-4.46,1.64-2.02,1.05-4.63,2.87-7.39,1.86-2.69-.99-5.14-3.31-8.51-2.93-1.4.16-2.6.82-3.59,1.48-1.13.76-2.12,1.62-3.12,2.46-.81.68-1.7,1.43-2.83,1.85-.42.16-.61.19-1.04.17-.57-.03-1.09-.14-1.68-.26-1.48-.29-3.13-.73-4.68-.63-1.49.09-2.6.83-3.87,1.28-1.23.43-2.11.31-3.35-.09-1.66-.54-3.29-1.13-4.95-1.67-1.2-.39-2.42-.69-3.75-.62-1.61.09-2.97.76-4.22,1.39-.83.41-1.65.83-2.44,1.27,4.38-14.45,20.21-30.05,37.63-29.09,5.81.32,11.15,2.45,15.76,5.69,4.08,2.86,7.6,6.6,10.36,10.73,1.31,1.95,2.46,4,3.41,6.08,0,0,0,0,0,0,.37.82,2.21,4.29,3.16,10.47-1.54-3.63-3.78-7.16-4.82-8.32Z"/>
    <path class="cls-3" d="M97.25,39.93c-1.68.35-3.07.92-4.46,1.64-2.02,1.05-4.63,2.87-7.39,1.86-1.21-.44-2.36-1.16-3.58-1.77l-3.8-5.82c-.29-.45-.34-.95-.14-1.41l2.83-6.41c.3-.68,1.4-1.01,2.34-.7l8.91,2.9c.64.21,1.16.57,1.45,1.02l6.03,9.15c-.6-.26-1.52-.61-2.2-.46Z"/>
    <path class="cls-5" d="M69.68,26.31l-5.69,3.43c-.17.1-.37.16-.58.16l-4.49-.07c-.5,0-.87-.45-.79-.94l.41-2.51c.05-.31.24-.59.51-.76l5.69-3.43c.17-.1.37-.16.58-.16l4.49.07c.5,0,.87.45.79.94l-.41,2.51c-.05.31-.24.59-.51.76Z"/>
    <path class="cls-5" d="M68.38,45.79c-.32.19-.65.36-1.01.5-.42.16-.61.19-1.04.17-.57-.03-1.09-.14-1.68-.26-1.48-.29-3.13-.73-4.68-.63-1.49.09-2.6.83-3.87,1.28-1.23.43-2.11.31-3.35-.09-1.66-.54-3.29-1.13-4.95-1.67-.95-.31-1.91-.56-2.93-.62l3.52-7.97c.19-.42.67-.74,1.29-.84l10.92-1.85c.68-.12,1.41.05,1.88.43l7.44,6.02c.42.34.56.8.38,1.22l-1.91,4.32Z"/>
  </g>
</svg>