<?xml version="1.0" encoding="UTF-8"?>
<svg id="Calque_2" data-name="Calque 2" xmlns="http://www.w3.org/2000/svg" xmlns:xlink="http://www.w3.org/1999/xlink" viewBox="0 0 82.12 62.03">
  <defs>
    <style>
      .cls-1 {
        fill: url(#Dégradé_sans_nom_140);
      }

      .cls-2 {
        fill: #fff;
        font-family: LuckiestGuy-Regular, 'Luckiest Guy';
        font-size: 29.18px;
      }

      .cls-3 {
        fill: none;
        stroke: #ffed00;
        stroke-miterlimit: 10;
        stroke-width: 3.6px;
      }

      .cls-4 {
        fill: url(#Dégradé_sans_nom_140-2);
      }

      .cls-5 {
        fill: url(#Dégradé_sans_nom_140-5);
      }

      .cls-6 {
        fill: url(#Dégradé_sans_nom_140-4);
      }

      .cls-7 {
        fill: url(#Dégradé_sans_nom_140-3);
      }
    </style>
    <linearGradient id="Dégradé_sans_nom_140" data-name="Dégradé sans nom 140" x1="18.9" y1="6.39" x2="18.9" y2="20.81" gradientUnits="userSpaceOnUse">
      <stop offset="0" stop-color="#ffef26"/>
      <stop offset=".18" stop-color="#feea2c"/>
      <stop offset=".44" stop-color="#fcde3f"/>
      <stop offset=".74" stop-color="#f9ca5d"/>
      <stop offset="1" stop-color="#f6b67d"/>
    </linearGradient>
    <linearGradient id="Dégradé_sans_nom_140-2" data-name="Dégradé sans nom 140" x1="29.15" y1="6.62" x2="29.15" y2="20.54" xlink:href="#Dégradé_sans_nom_140"/>
    <linearGradient id="Dégradé_sans_nom_140-3" data-name="Dégradé sans nom 140" x1="40.39" y1="7.7" x2="40.39" y2="20.31" xlink:href="#Dégradé_sans_nom_140"/>
    <linearGradient id="Dégradé_sans_nom_140-4" data-name="Dégradé sans nom 140" x1="52.79" y1="6.55" x2="52.79" y2="20.58" xlink:href="#Dégradé_sans_nom_140"/>
    <linearGradient id="Dégradé_sans_nom_140-5" data-name="Dégradé sans nom 140" x1="63.66" y1="6.78" x2="63.66" y2="20.67" xlink:href="#Dégradé_sans_nom_140"/>
  </defs>
  <g id="Calque_1-2" data-name="Calque 1">
    <path class="cls-3" d="M80.32,27.68v25.9c0,2.76-2.24,4.99-5,4.99H6.8c-2.76,0-5-2.23-5-4.99v-25.9c0-2.76,2.24-5,5-5h1.87c.34,1.69,1.83,2.97,3.63,2.97h57.52c1.79,0,3.28-1.28,3.63-2.97h1.87c2.76,0,5,2.24,5,5Z"/>
    <path class="cls-3" d="M73.52,5.5v16.44c0,.25-.02.5-.07.74-.35,1.69-1.84,2.97-3.63,2.97H12.3c-1.8,0-3.29-1.28-3.63-2.97-.05-.24-.08-.49-.08-.74V5.5c0-2.04,1.66-3.7,3.71-3.7h57.52c2.04,0,3.7,1.66,3.7,3.7Z"/>
    <g>
      <path class="cls-1" d="M23.95,15.55c0,.88-.15,1.65-.46,2.31-.3.66-.72,1.21-1.25,1.64-.53.44-1.15.76-1.86.98s-1.47.33-2.29.33c-.31,0-.66-.04-1.04-.13-.38-.08-.76-.19-1.14-.31-.39-.13-.76-.26-1.11-.41-.36-.14-.67-.28-.95-.41l.42-3.97c.55.33,1.15.58,1.82.75s1.32.26,1.96.26c.12,0,.27,0,.44-.01s.34-.04.5-.09.29-.12.4-.22c.11-.1.16-.23.16-.41,0-.12-.04-.23-.12-.31-.08-.09-.18-.16-.3-.21-.12-.05-.26-.1-.41-.12-.15-.03-.31-.05-.45-.06-.15-.01-.29-.02-.41-.02h-.31c-.55,0-1.05-.1-1.51-.29-.45-.19-.84-.46-1.17-.8-.32-.34-.58-.75-.76-1.22-.18-.47-.27-.98-.27-1.54,0-.76.15-1.44.46-2.04.31-.6.71-1.11,1.22-1.53s1.1-.74,1.76-.97c.66-.22,1.35-.34,2.05-.34.31,0,.64.01.97.03s.67.06,1,.12c.33.06.65.13.97.22.31.09.61.2.9.34l-.37,3.91c-.44-.15-.89-.27-1.37-.37-.48-.1-.95-.15-1.4-.15-.08,0-.19,0-.32,0-.13,0-.27.01-.41.03-.14.02-.29.04-.44.07-.15.03-.28.08-.39.13-.12.05-.21.13-.28.22-.07.09-.1.2-.1.32,0,.14.06.26.16.34.1.09.23.15.39.2.16.05.33.08.52.1.19.02.38.03.56.03s.36,0,.52,0,.29,0,.4.01c.51.03.98.14,1.39.33s.76.43,1.05.74c.29.31.5.68.66,1.1.15.43.23.9.23,1.41Z"/>
      <path class="cls-4" d="M34.1,7.13l-.54,4.07c-.19-.05-.37-.09-.56-.11s-.37-.03-.56-.03c-.48,0-.93.06-1.36.19-.43.12-.81.32-1.14.57-.33.26-.59.58-.79.96s-.29.84-.29,1.36c0,.33.05.62.16.87.11.24.26.45.45.61s.42.28.68.36c.26.08.55.12.87.12.24,0,.48-.03.74-.08.26-.05.51-.12.76-.2.25-.08.49-.18.73-.29.24-.11.46-.22.66-.34l-.39,4.53c-.25.13-.52.24-.81.34-.29.1-.59.19-.9.26-.31.07-.62.13-.93.17-.31.04-.6.06-.89.06-.82,0-1.58-.15-2.28-.45-.71-.3-1.32-.72-1.84-1.24s-.93-1.15-1.23-1.86c-.3-.72-.45-1.49-.45-2.32,0-1.1.16-2.13.47-3.11.31-.97.78-1.83,1.39-2.56s1.37-1.31,2.27-1.73c.9-.42,1.94-.64,3.12-.64.44,0,.9.04,1.36.11.47.07.9.2,1.3.39Z"/>
      <path class="cls-7" d="M46.5,13.87c0,.58-.07,1.15-.2,1.69s-.33,1.05-.58,1.53-.56.91-.93,1.31c-.36.4-.77.73-1.22,1.02-.45.28-.95.5-1.48.66-.53.16-1.1.24-1.7.24s-1.13-.07-1.65-.22-1.01-.36-1.47-.62c-.46-.27-.87-.59-1.24-.96-.37-.38-.68-.79-.94-1.25-.26-.46-.46-.95-.61-1.48-.14-.53-.22-1.08-.22-1.65s.07-1.11.2-1.64c.14-.54.33-1.04.58-1.52.25-.47.56-.91.92-1.31.36-.4.76-.74,1.21-1.03.45-.29.93-.51,1.45-.67s1.07-.24,1.65-.24c.93,0,1.78.14,2.55.43.77.29,1.42.7,1.97,1.24.54.54.96,1.19,1.26,1.95.3.76.45,1.61.45,2.55ZM42.23,14.12c0-.28-.04-.54-.12-.8-.08-.26-.2-.49-.35-.69-.15-.2-.35-.37-.57-.49-.23-.13-.49-.19-.79-.19s-.57.06-.81.16c-.24.11-.44.26-.61.45-.17.19-.3.41-.39.66-.09.25-.13.52-.13.8s.04.54.12.81.19.51.35.73c.15.22.35.4.57.53.23.14.49.2.79.2s.57-.06.81-.18c.24-.12.44-.28.61-.48.17-.2.3-.44.39-.7.09-.26.14-.54.14-.82Z"/>
      <path class="cls-6" d="M58.47,11.38c0,.5-.04.96-.13,1.36-.09.41-.22.78-.41,1.12-.19.34-.43.66-.72.94-.3.29-.65.57-1.07.83l2.29,4.09-4.34.85-1.48-4.1-1.19.04-.17,4.01h-4.14c.03-1.46.06-2.92.09-4.37.03-1.45.06-2.91.1-4.37.01-.74.03-1.47.04-2.2.01-.73.04-1.46.08-2.2.45-.17.89-.31,1.33-.41.44-.11.88-.19,1.32-.26.44-.06.89-.1,1.34-.13.45-.02.92-.03,1.39-.03.73,0,1.44.1,2.12.3s1.29.51,1.82.91c.53.4.95.91,1.27,1.51.32.6.48,1.31.48,2.11ZM54.15,11.69c0-.27-.04-.52-.11-.74-.07-.22-.18-.42-.33-.58-.14-.16-.32-.29-.54-.39-.22-.09-.47-.14-.76-.14-.13,0-.25,0-.38.02s-.24.04-.36.07l-.15,3.58h.23c.28,0,.56-.04.84-.11.29-.07.54-.18.77-.33.23-.15.41-.34.56-.57.14-.23.22-.51.22-.83Z"/>
      <path class="cls-5" d="M68.26,6.78c-.04.6-.07,1.2-.11,1.79-.03.59-.07,1.19-.13,1.79l-4.08.21-.1,1.21h2.87l-.21,2.99-2.89.1-.1,1.41h4.08c-.04.71-.08,1.41-.12,2.11-.04.7-.08,1.4-.11,2.1l-8.31.19.31-13.89h8.88Z"/>
    </g>
    <text class="cls-2" transform="translate(15.27 51.83)"><tspan x="0" y="0">XXX</tspan></text>
  </g>
</svg>